<?xml version="1.0" encoding="UTF-8" standalone="no"?>
<!DOCTYPE svg PUBLIC "-//W3C//DTD SVG 1.1//EN"
 "http://www.w3.org/Graphics/SVG/1.1/DTD/svg11.dtd">
<!-- Generated by graphviz version 12.2.1 (0)
 -->
<!-- Title: classes_api Pages: 1 -->
<svg width="4474pt" height="868pt"
 viewBox="36.00 36.00 3319.38 615.00" xmlns="http://www.w3.org/2000/svg" xmlns:xlink="http://www.w3.org/1999/xlink">
<g id="graph0" class="graph" transform="scale(1.33333 1.33333) rotate(0) translate(40 611)">
<title>classes_api</title>
<polygon fill="white" stroke="none" points="-4,4 -4,-575 3279.38,-575 3279.38,4 -4,4"/>
<!-- de_funk.api.handlers.box.BoxHandler -->
<g id="node1" class="node">
<title>de_funk.api.handlers.box.BoxHandler</title>
<polygon fill="none" stroke="black" points="580.62,-17 580.62,-90.5 1001.62,-90.5 1001.62,-17 580.62,-17"/>
<text text-anchor="start" x="752.12" y="-74.15" font-family="Times,serif" font-size="13.00">BoxHandler</text>
<polyline fill="none" stroke="black" points="580.62,-66 1001.62,-66"/>
<text text-anchor="start" x="749.12" y="-49.65" font-family="Times,serif" font-size="13.00">handles : set</text>
<polyline fill="none" stroke="black" points="580.62,-41.5 1001.62,-41.5"/>
<text text-anchor="start" x="588.62" y="-25.15" font-family="Times,serif" font-size="13.00">execute(payload: dict[str, Any], resolver: FieldResolver): dict</text>
</g>
<!-- de_funk.api.handlers.base.ExhibitHandler -->
<g id="node2" class="node">
<title>de_funk.api.handlers.base.ExhibitHandler</title>
<polygon fill="none" stroke="black" points="692.25,-248.75 692.25,-322.25 1048,-322.25 1048,-248.75 692.25,-248.75"/>
<text text-anchor="start" x="819.5" y="-305.9" font-family="Times,serif" font-size="13.00">ExhibitHandler</text>
<polyline fill="none" stroke="black" points="692.25,-297.75 1048,-297.75"/>
<text text-anchor="start" x="813.88" y="-281.4" font-family="Times,serif" font-size="13.00">handles : set[str]</text>
<polyline fill="none" stroke="black" points="692.25,-273.25 1048,-273.25"/>
<text text-anchor="start" x="700.25" y="-257.9" font-family="Times,serif" font-style="italic" font-size="13.00">execute</text>
<text text-anchor="start" x="751.25" y="-257.9" font-family="Times,serif" font-size="13.00">(payload: dict[str, Any], resolver: Any): Any</text>
</g>
<!-- de_funk.api.handlers.box.BoxHandler&#45;&gt;de_funk.api.handlers.base.ExhibitHandler -->
<g id="edge2" class="edge">
<title>de_funk.api.handlers.box.BoxHandler&#45;&gt;de_funk.api.handlers.base.ExhibitHandler</title>
<path fill="none" stroke="black" d="M803.56,-90.9C817.19,-130.54 839.1,-194.28 854.04,-237.71"/>
<polygon fill="none" stroke="black" points="850.71,-238.81 857.27,-247.13 857.33,-236.53 850.71,-238.81"/>
</g>
<!-- de_funk.api.executor.QueryEngine -->
<g id="node10" class="node">
<title>de_funk.api.executor.QueryEngine</title>
<polygon fill="none" stroke="black" points="1106.5,-232.25 1106.5,-338.75 2279.75,-338.75 2279.75,-232.25 1106.5,-232.25"/>
<text text-anchor="start" x="1650" y="-322.4" font-family="Times,serif" font-size="13.00">QueryEngine</text>
<polyline fill="none" stroke="black" points="1106.5,-314.25 2279.75,-314.25"/>
<text text-anchor="start" x="1612.12" y="-297.9" font-family="Times,serif" font-size="13.00">max_response_mb : float</text>
<text text-anchor="start" x="1612.12" y="-281.4" font-family="Times,serif" font-size="13.00">storage_root : Path</text>
<polyline fill="none" stroke="black" points="1106.5,-273.25 2279.75,-273.25"/>
<text text-anchor="start" x="1114.5" y="-256.9" font-family="Times,serif" font-size="13.00">distinct_values(resolved: ResolvedField, extra_filters: list[tuple[ResolvedField | str, Any]] | None, resolver: Any): list[Any]</text>
<text text-anchor="start" x="1114.5" y="-240.4" font-family="Times,serif" font-size="13.00">distinct_values_by_measure(resolved: ResolvedField, order_by: ResolvedField, order_dir: str, extra_filters: list[tuple[ResolvedField | str, Any]] | None, resolver: Any): list[Any]</text>
</g>
<!-- de_funk.api.handlers.box.BoxHandler&#45;&gt;de_funk.api.executor.QueryEngine -->
<g id="edge1" class="edge">
<title>de_funk.api.handlers.box.BoxHandler&#45;&gt;de_funk.api.executor.QueryEngine</title>
<path fill="none" stroke="black" d="M950.65,-90.96C977.47,-96.72 1005.05,-102.44 1031.12,-107.5 1143.95,-129.4 1174.56,-122.89 1286.12,-150.5 1371.47,-171.62 1464.77,-201.8 1540.48,-228.17"/>
<polygon fill="none" stroke="black" points="1539.02,-231.37 1549.61,-231.37 1541.33,-224.76 1539.02,-231.37"/>
</g>
<!-- de_funk.api.models.requests.ExpandableData -->
<g id="node3" class="node">
<title>de_funk.api.models.requests.ExpandableData</title>
<polygon fill="none" stroke="black" points="2766,-0.5 2766,-107 3000.25,-107 3000.25,-0.5 2766,-0.5"/>
<text text-anchor="start" x="2829.12" y="-90.65" font-family="Times,serif" font-size="13.00">ExpandableData</text>
<polyline fill="none" stroke="black" points="2766,-82.5 3000.25,-82.5"/>
<text text-anchor="start" x="2774" y="-66.15" font-family="Times,serif" font-size="13.00">children : dict[str, list[list[Any]]]</text>
<text text-anchor="start" x="2774" y="-49.65" font-family="Times,serif" font-size="13.00">columns : list[dict[str, Any]]</text>
<text text-anchor="start" x="2774" y="-33.15" font-family="Times,serif" font-size="13.00">total_rows : int</text>
<polyline fill="none" stroke="black" points="2766,-25 3000.25,-25"/>
<text text-anchor="start" x="2880.88" y="-8.65" font-family="Times,serif" font-size="13.00"> </text>
</g>
<!-- de_funk.api.models.requests.GreatTablesResponse -->
<g id="node6" class="node">
<title>de_funk.api.models.requests.GreatTablesResponse</title>
<polygon fill="none" stroke="black" points="2743.5,-240.5 2743.5,-330.5 3022.75,-330.5 3022.75,-240.5 2743.5,-240.5"/>
<text text-anchor="start" x="2812.62" y="-314.15" font-family="Times,serif" font-size="13.00">GreatTablesResponse</text>
<polyline fill="none" stroke="black" points="2743.5,-306 3022.75,-306"/>
<text text-anchor="start" x="2751.5" y="-289.65" font-family="Times,serif" font-size="13.00">expandable : Optional[ExpandableData]</text>
<text text-anchor="start" x="2751.5" y="-273.15" font-family="Times,serif" font-size="13.00">html : str</text>
<polyline fill="none" stroke="black" points="2743.5,-265 3022.75,-265"/>
<text text-anchor="start" x="2880.88" y="-248.65" font-family="Times,serif" font-size="13.00"> </text>
</g>
<!-- de_funk.api.models.requests.ExpandableData&#45;&gt;de_funk.api.models.requests.GreatTablesResponse -->
<g id="edge12" class="edge">
<title>de_funk.api.models.requests.ExpandableData&#45;&gt;de_funk.api.models.requests.GreatTablesResponse</title>
<path fill="none" stroke="black" d="M2883.12,-107.46C2883.12,-143.21 2883.12,-190.46 2883.12,-227.15"/>
<polygon fill="none" stroke="black" points="2883.13,-227.25 2887.13,-233.25 2883.13,-239.25 2879.13,-233.25 2883.13,-227.25"/>
<text text-anchor="middle" x="2915" y="-153.55" font-family="Times,serif" font-size="11.00" fill="green">expandable</text>
</g>
<!-- de_funk.api.resolver.FieldRef -->
<g id="node4" class="node">
<title>de_funk.api.resolver.FieldRef</title>
<polygon fill="none" stroke="black" points="3130.38,-0.5 3130.38,-107 3225.88,-107 3225.88,-0.5 3130.38,-0.5"/>
<text text-anchor="start" x="3150.38" y="-90.65" font-family="Times,serif" font-size="13.00">FieldRef</text>
<polyline fill="none" stroke="black" points="3130.38,-82.5 3225.88,-82.5"/>
<text text-anchor="start" x="3138.38" y="-66.15" font-family="Times,serif" font-size="13.00">domain : str</text>
<text text-anchor="start" x="3138.38" y="-49.65" font-family="Times,serif" font-size="13.00">field : str</text>
<text text-anchor="start" x="3138.38" y="-33.15" font-family="Times,serif" font-size="13.00">raw : str</text>
<polyline fill="none" stroke="black" points="3130.38,-25 3225.88,-25"/>
<text text-anchor="start" x="3175.88" y="-8.65" font-family="Times,serif" font-size="13.00"> </text>
</g>
<!-- de_funk.api.resolver.ResolvedField -->
<g id="node11" class="node">
<title>de_funk.api.resolver.ResolvedField</title>
<polygon fill="none" stroke="black" points="3080.88,-207.5 3080.88,-363.5 3275.38,-363.5 3275.38,-207.5 3080.88,-207.5"/>
<text text-anchor="start" x="3131.62" y="-347.15" font-family="Times,serif" font-size="13.00">ResolvedField</text>
<polyline fill="none" stroke="black" points="3080.88,-339 3275.38,-339"/>
<text text-anchor="start" x="3088.88" y="-322.65" font-family="Times,serif" font-size="13.00">column : str</text>
<text text-anchor="start" x="3088.88" y="-306.15" font-family="Times,serif" font-size="13.00">domain</text>
<text text-anchor="start" x="3088.88" y="-289.65" font-family="Times,serif" font-size="13.00">format_code : Optional[str]</text>
<text text-anchor="start" x="3088.88" y="-273.15" font-family="Times,serif" font-size="13.00">ref</text>
<text text-anchor="start" x="3088.88" y="-256.65" font-family="Times,serif" font-size="13.00">silver_path : Path</text>
<text text-anchor="start" x="3088.88" y="-240.15" font-family="Times,serif" font-size="13.00">table_name : str</text>
<polyline fill="none" stroke="black" points="3080.88,-232 3275.38,-232"/>
<text text-anchor="start" x="3175.88" y="-215.65" font-family="Times,serif" font-size="13.00"> </text>
</g>
<!-- de_funk.api.resolver.FieldRef&#45;&gt;de_funk.api.resolver.ResolvedField -->
<g id="edge13" class="edge">
<title>de_funk.api.resolver.FieldRef&#45;&gt;de_funk.api.resolver.ResolvedField</title>
<path fill="none" stroke="black" d="M3178.12,-107.46C3178.12,-133.19 3178.12,-164.89 3178.12,-194.31"/>
<polygon fill="none" stroke="black" points="3178.13,-194.29 3182.13,-200.29 3178.13,-206.29 3174.13,-200.29 3178.13,-194.29"/>
<text text-anchor="middle" x="3186" y="-153.55" font-family="Times,serif" font-size="11.00" fill="green">ref</text>
</g>
<!-- de_funk.api.handlers.graphical.GraphicalHandler -->
<g id="node5" class="node">
<title>de_funk.api.handlers.graphical.GraphicalHandler</title>
<polygon fill="none" stroke="black" points="0,-0.5 0,-107 522.25,-107 522.25,-0.5 0,-0.5"/>
<text text-anchor="start" x="202.25" y="-90.65" font-family="Times,serif" font-size="13.00">GraphicalHandler</text>
<polyline fill="none" stroke="black" points="0,-82.5 522.25,-82.5"/>
<text text-anchor="start" x="201.5" y="-66.15" font-family="Times,serif" font-size="13.00">handles : set</text>
<text text-anchor="start" x="201.5" y="-49.65" font-family="Times,serif" font-size="13.00">max_response_mb</text>
<text text-anchor="start" x="201.5" y="-33.15" font-family="Times,serif" font-size="13.00">storage_root</text>
<polyline fill="none" stroke="black" points="0,-25 522.25,-25"/>
<text text-anchor="start" x="8" y="-8.65" font-family="Times,serif" font-size="13.00">execute(payload: dict[str, Any], resolver: FieldResolver): GraphicalResponse</text>
</g>
<!-- de_funk.api.handlers.graphical.GraphicalHandler&#45;&gt;de_funk.api.handlers.base.ExhibitHandler -->
<g id="edge4" class="edge">
<title>de_funk.api.handlers.graphical.GraphicalHandler&#45;&gt;de_funk.api.handlers.base.ExhibitHandler</title>
<path fill="none" stroke="black" d="M400.84,-107.46C511.24,-149.11 662.99,-206.36 763.69,-244.35"/>
<polygon fill="none" stroke="black" points="762.18,-247.52 772.77,-247.77 764.65,-240.97 762.18,-247.52"/>
</g>
<!-- de_funk.api.handlers.graphical.GraphicalHandler&#45;&gt;de_funk.api.executor.QueryEngine -->
<g id="edge3" class="edge">
<title>de_funk.api.handlers.graphical.GraphicalHandler&#45;&gt;de_funk.api.executor.QueryEngine</title>
<path fill="none" stroke="black" d="M522.7,-102.65C532.29,-104.31 541.79,-105.93 551.12,-107.5 809.65,-151.04 1101.79,-196.25 1325.87,-230.07"/>
<polygon fill="none" stroke="black" points="1325.26,-233.52 1335.67,-231.55 1326.3,-226.6 1325.26,-233.52"/>
</g>
<!-- de_funk.api.handlers.HandlerRegistry -->
<g id="node7" class="node">
<title>de_funk.api.handlers.HandlerRegistry</title>
<polygon fill="none" stroke="black" points="1550.12,-464 1550.12,-570.5 1836.12,-570.5 1836.12,-464 1550.12,-464"/>
<text text-anchor="start" x="1638.75" y="-554.15" font-family="Times,serif" font-size="13.00">HandlerRegistry</text>
<polyline fill="none" stroke="black" points="1550.12,-546 1836.12,-546"/>
<text text-anchor="start" x="1639.12" y="-529.65" font-family="Times,serif" font-size="13.00">shared_engine</text>
<text text-anchor="start" x="1639.12" y="-513.15" font-family="Times,serif" font-size="13.00">supported_types</text>
<polyline fill="none" stroke="black" points="1550.12,-505 1836.12,-505"/>
<text text-anchor="start" x="1558.12" y="-488.65" font-family="Times,serif" font-size="13.00">get(type_str: str): ExhibitHandler | None</text>
<text text-anchor="start" x="1558.12" y="-472.15" font-family="Times,serif" font-size="13.00">register(handler: ExhibitHandler): None</text>
</g>
<!-- de_funk.api.handlers.metrics.MetricsHandler -->
<g id="node8" class="node">
<title>de_funk.api.handlers.metrics.MetricsHandler</title>
<polygon fill="none" stroke="black" points="1654.12,-17 1654.12,-90.5 2156.12,-90.5 2156.12,-17 1654.12,-17"/>
<text text-anchor="start" x="1853" y="-74.15" font-family="Times,serif" font-size="13.00">MetricsHandler</text>
<polyline fill="none" stroke="black" points="1654.12,-66 2156.12,-66"/>
<text text-anchor="start" x="1863.12" y="-49.65" font-family="Times,serif" font-size="13.00">handles : set</text>
<polyline fill="none" stroke="black" points="1654.12,-41.5 2156.12,-41.5"/>
<text text-anchor="start" x="1662.12" y="-25.15" font-family="Times,serif" font-size="13.00">execute(payload: dict[str, Any], resolver: FieldResolver): MetricResponse</text>
</g>
<!-- de_funk.api.handlers.metrics.MetricsHandler&#45;&gt;de_funk.api.handlers.base.ExhibitHandler -->
<g id="edge6" class="edge">
<title>de_funk.api.handlers.metrics.MetricsHandler&#45;&gt;de_funk.api.handlers.base.ExhibitHandler</title>
<path fill="none" stroke="black" d="M1713.87,-90.96C1684.17,-96.53 1653.82,-102.19 1625.12,-107.5 1381.72,-152.53 1315.77,-141.23 1077.12,-207 1040.5,-217.09 1001.24,-230.97 966.86,-244.2"/>
<polygon fill="none" stroke="black" points="965.83,-240.85 957.77,-247.73 968.36,-247.37 965.83,-240.85"/>
</g>
<!-- de_funk.api.handlers.metrics.MetricsHandler&#45;&gt;de_funk.api.executor.QueryEngine -->
<g id="edge5" class="edge">
<title>de_funk.api.handlers.metrics.MetricsHandler&#45;&gt;de_funk.api.executor.QueryEngine</title>
<path fill="none" stroke="black" d="M1871.77,-90.9C1838.97,-126.44 1788.3,-181.36 1749.29,-223.63"/>
<polygon fill="none" stroke="black" points="1746.89,-221.07 1742.68,-230.8 1752.03,-225.82 1746.89,-221.07"/>
</g>
<!-- de_funk.api.handlers.pivot.PivotHandler -->
<g id="node9" class="node">
<title>de_funk.api.handlers.pivot.PivotHandler</title>
<polygon fill="none" stroke="black" points="1059.88,-17 1059.88,-90.5 1596.38,-90.5 1596.38,-17 1059.88,-17"/>
<text text-anchor="start" x="1284.62" y="-74.15" font-family="Times,serif" font-size="13.00">PivotHandler</text>
<polyline fill="none" stroke="black" points="1059.88,-66 1596.38,-66"/>
<text text-anchor="start" x="1286.12" y="-49.65" font-family="Times,serif" font-size="13.00">handles : set</text>
<polyline fill="none" stroke="black" points="1059.88,-41.5 1596.38,-41.5"/>
<text text-anchor="start" x="1067.88" y="-25.15" font-family="Times,serif" font-size="13.00">execute(payload: dict[str, Any], resolver: FieldResolver): GreatTablesResponse</text>
</g>
<!-- de_funk.api.handlers.pivot.PivotHandler&#45;&gt;de_funk.api.handlers.base.ExhibitHandler -->
<g id="edge8" class="edge">
<title>de_funk.api.handlers.pivot.PivotHandler&#45;&gt;de_funk.api.handlers.base.ExhibitHandler</title>
<path fill="none" stroke="black" d="M1233.1,-90.91C1191.13,-107.74 1141.57,-128.82 1098.12,-150.5 1042.05,-178.48 980.96,-214.72 936.14,-242.45"/>
<polygon fill="none" stroke="black" points="934.48,-239.36 927.83,-247.61 938.18,-245.31 934.48,-239.36"/>
</g>
<!-- de_funk.api.handlers.pivot.PivotHandler&#45;&gt;de_funk.api.executor.QueryEngine -->
<g id="edge7" class="edge">
<title>de_funk.api.handlers.pivot.PivotHandler&#45;&gt;de_funk.api.executor.QueryEngine</title>
<path fill="none" stroke="black" d="M1385.56,-90.9C1443.08,-127.11 1532.54,-183.42 1600.18,-226"/>
<polygon fill="none" stroke="black" points="1597.97,-228.74 1608.3,-231.1 1601.7,-222.81 1597.97,-228.74"/>
</g>
<!-- de_funk.api.executor.QueryEngine&#45;&gt;de_funk.api.handlers.HandlerRegistry -->
<g id="edge11" class="edge">
<title>de_funk.api.executor.QueryEngine&#45;&gt;de_funk.api.handlers.HandlerRegistry</title>
<path fill="none" stroke="black" d="M1693.12,-339.21C1693.12,-372.48 1693.12,-415.71 1693.12,-451.13"/>
<polygon fill="none" stroke="black" points="1693.13,-450.88 1697.13,-456.88 1693.13,-462.88 1689.13,-456.88 1693.13,-450.88"/>
<text text-anchor="middle" x="1733.62" y="-410.05" font-family="Times,serif" font-size="11.00" fill="green">shared_engine</text>
</g>
<!-- de_funk.api.handlers.table_data.TableDataHandler -->
<g id="node12" class="node">
<title>de_funk.api.handlers.table_data.TableDataHandler</title>
<polygon fill="none" stroke="black" points="2214.62,-17 2214.62,-90.5 2707.62,-90.5 2707.62,-17 2214.62,-17"/>
<text text-anchor="start" x="2401.5" y="-74.15" font-family="Times,serif" font-size="13.00">TableDataHandler</text>
<polyline fill="none" stroke="black" points="2214.62,-66 2707.62,-66"/>
<text text-anchor="start" x="2419.12" y="-49.65" font-family="Times,serif" font-size="13.00">handles : set</text>
<polyline fill="none" stroke="black" points="2214.62,-41.5 2707.62,-41.5"/>
<text text-anchor="start" x="2222.62" y="-25.15" font-family="Times,serif" font-size="13.00">execute(payload: dict[str, Any], resolver: FieldResolver): TableResponse</text>
</g>
<!-- de_funk.api.handlers.table_data.TableDataHandler&#45;&gt;de_funk.api.handlers.base.ExhibitHandler -->
<g id="edge10" class="edge">
<title>de_funk.api.handlers.table_data.TableDataHandler&#45;&gt;de_funk.api.handlers.base.ExhibitHandler</title>
<path fill="none" stroke="black" d="M2285.98,-90.93C2252.59,-97.06 2217.86,-102.91 2185.12,-107.5 1940.3,-141.8 1318.17,-152.11 1077.12,-207 1038.3,-215.84 996.95,-230.25 961.49,-244.25"/>
<polygon fill="none" stroke="black" points="960.56,-240.86 952.57,-247.82 963.16,-247.35 960.56,-240.86"/>
</g>
<!-- de_funk.api.handlers.table_data.TableDataHandler&#45;&gt;de_funk.api.executor.QueryEngine -->
<g id="edge9" class="edge">
<title>de_funk.api.handlers.table_data.TableDataHandler&#45;&gt;de_funk.api.executor.QueryEngine</title>
<path fill="none" stroke="black" d="M2351.96,-90.94C2285.43,-112.72 2198.59,-140.66 2121.12,-164 2048.27,-185.95 1968.07,-208.86 1896.98,-228.74"/>
<polygon fill="none" stroke="black" points="1896.26,-225.31 1887.57,-231.37 1898.14,-232.05 1896.26,-225.31"/>
</g>
</g>
</svg>
