<?xml version="1.0" encoding="UTF-8" standalone="no"?>
<!DOCTYPE svg PUBLIC "-//W3C//DTD SVG 1.1//EN"
 "http://www.w3.org/Graphics/SVG/1.1/DTD/svg11.dtd">
<!-- Generated by graphviz version 12.2.1 (0)
 -->
<!-- Title: classes_config Pages: 1 -->
<svg width="759pt" height="680pt"
 viewBox="36.00 36.00 533.50 474.00" xmlns="http://www.w3.org/2000/svg" xmlns:xlink="http://www.w3.org/1999/xlink">
<g id="graph0" class="graph" transform="scale(1.33333 1.33333) rotate(0) translate(40 470)">
<title>classes_config</title>
<polygon fill="white" stroke="none" points="-4,4 -4,-434 493.5,-434 493.5,4 -4,4"/>
<!-- de_funk.config.models.AppConfig -->
<g id="node1" class="node">
<title>de_funk.config.models.AppConfig</title>
<polygon fill="none" stroke="black" points="153.5,-207.5 153.5,-429.5 363,-429.5 363,-207.5 153.5,-207.5"/>
<text text-anchor="start" x="223.75" y="-413.15" font-family="Times,serif" font-size="13.00">AppConfig</text>
<polyline fill="none" stroke="black" points="153.5,-405 363,-405"/>
<text text-anchor="start" x="161.5" y="-388.65" font-family="Times,serif" font-size="13.00">apis : Dict[str, Dict[str, Any]]</text>
<text text-anchor="start" x="161.5" y="-372.15" font-family="Times,serif" font-size="13.00">configs_dir</text>
<text text-anchor="start" x="161.5" y="-355.65" font-family="Times,serif" font-size="13.00">connection</text>
<text text-anchor="start" x="161.5" y="-339.15" font-family="Times,serif" font-size="13.00">debug</text>
<text text-anchor="start" x="161.5" y="-322.65" font-family="Times,serif" font-size="13.00">env_loaded : bool</text>
<text text-anchor="start" x="161.5" y="-306.15" font-family="Times,serif" font-size="13.00">legacy_models_dir</text>
<text text-anchor="start" x="161.5" y="-289.65" font-family="Times,serif" font-size="13.00">log_level : str</text>
<text text-anchor="start" x="161.5" y="-273.15" font-family="Times,serif" font-size="13.00">models_dir</text>
<text text-anchor="start" x="161.5" y="-256.65" font-family="Times,serif" font-size="13.00">repo_root : Path</text>
<text text-anchor="start" x="161.5" y="-240.15" font-family="Times,serif" font-size="13.00">storage : Dict[str, Any]</text>
<polyline fill="none" stroke="black" points="153.5,-232 363,-232"/>
<text text-anchor="start" x="256" y="-215.65" font-family="Times,serif" font-size="13.00"> </text>
</g>
<!-- de_funk.config.models.ConnectionConfig -->
<g id="node2" class="node">
<title>de_funk.config.models.ConnectionConfig</title>
<polygon fill="none" stroke="black" points="0,-0.5 0,-107 242.5,-107 242.5,-0.5 0,-0.5"/>
<text text-anchor="start" x="62.75" y="-90.65" font-family="Times,serif" font-size="13.00">ConnectionConfig</text>
<polyline fill="none" stroke="black" points="0,-82.5 242.5,-82.5"/>
<text text-anchor="start" x="8" y="-66.15" font-family="Times,serif" font-size="13.00">duckdb : Optional[DuckDBConfig]</text>
<text text-anchor="start" x="8" y="-49.65" font-family="Times,serif" font-size="13.00">spark : Optional[SparkConfig]</text>
<text text-anchor="start" x="8" y="-33.15" font-family="Times,serif" font-size="13.00">type : str</text>
<polyline fill="none" stroke="black" points="0,-25 242.5,-25"/>
<text text-anchor="start" x="119" y="-8.65" font-family="Times,serif" font-size="13.00"> </text>
</g>
<!-- de_funk.config.models.ConnectionConfig&#45;&gt;de_funk.config.models.AppConfig -->
<g id="edge1" class="edge">
<title>de_funk.config.models.ConnectionConfig&#45;&gt;de_funk.config.models.AppConfig</title>
<path fill="none" stroke="black" d="M148.64,-107.29C161.96,-132.83 178.57,-164.68 194.8,-195.81"/>
<polygon fill="black" stroke="black" points="194.79,-195.79 201.11,-199.26 200.34,-206.43 194.01,-202.96 194.79,-195.79"/>
<text text-anchor="middle" x="207.85" y="-153.55" font-family="Times,serif" font-size="11.00" fill="green">connection</text>
</g>
<!-- de_funk.config.models.DebugConfig -->
<g id="node3" class="node">
<title>de_funk.config.models.DebugConfig</title>
<polygon fill="none" stroke="black" points="301,-0.5 301,-107 489.5,-107 489.5,-0.5 301,-0.5"/>
<text text-anchor="start" x="352.5" y="-90.65" font-family="Times,serif" font-size="13.00">DebugConfig</text>
<polyline fill="none" stroke="black" points="301,-82.5 489.5,-82.5"/>
<text text-anchor="start" x="348.38" y="-66.15" font-family="Times,serif" font-size="13.00">exhibits : bool</text>
<text text-anchor="start" x="348.38" y="-49.65" font-family="Times,serif" font-size="13.00">filters : bool</text>
<text text-anchor="start" x="348.38" y="-33.15" font-family="Times,serif" font-size="13.00">sql : bool</text>
<polyline fill="none" stroke="black" points="301,-25 489.5,-25"/>
<text text-anchor="start" x="309" y="-8.65" font-family="Times,serif" font-size="13.00">from_env(): &#39;DebugConfig&#39;</text>
</g>
<!-- de_funk.config.models.DebugConfig&#45;&gt;de_funk.config.models.AppConfig -->
<g id="edge2" class="edge">
<title>de_funk.config.models.DebugConfig&#45;&gt;de_funk.config.models.AppConfig</title>
<path fill="none" stroke="black" d="M367.86,-107.29C354.54,-132.83 337.93,-164.68 321.7,-195.81"/>
<polygon fill="black" stroke="black" points="321.71,-195.79 322.49,-202.96 316.16,-206.43 315.39,-199.26 321.71,-195.79"/>
<text text-anchor="middle" x="359.92" y="-153.55" font-family="Times,serif" font-size="11.00" fill="green">debug</text>
</g>
</g>
</svg>
