<?xml version="1.0" encoding="UTF-8" standalone="no"?>
<!DOCTYPE svg PUBLIC "-//W3C//DTD SVG 1.1//EN"
 "http://www.w3.org/Graphics/SVG/1.1/DTD/svg11.dtd">
<!-- Generated by graphviz version 12.2.1 (0)
 -->
<!-- Title: classes_core Pages: 1 -->
<svg width="6838pt" height="1141pt"
 viewBox="36.00 36.00 5092.38 819.50" xmlns="http://www.w3.org/2000/svg" xmlns:xlink="http://www.w3.org/1999/xlink">
<g id="graph0" class="graph" transform="scale(1.33333 1.33333) rotate(0) translate(40 815.5)">
<title>classes_core</title>
<polygon fill="white" stroke="none" points="-4,4 -4,-779.5 5052.38,-779.5 5052.38,4 -4,4"/>
<!-- de_funk.core.exceptions.ConfigurationError -->
<g id="node1" class="node">
<title>de_funk.core.exceptions.ConfigurationError</title>
<polygon fill="none" stroke="black" points="2987.88,-495.25 2987.88,-544.25 3129.12,-544.25 3129.12,-495.25 2987.88,-495.25"/>
<text text-anchor="start" x="2995.88" y="-527.9" font-family="Times,serif" font-size="13.00" fill="red">ConfigurationError</text>
<polyline fill="none" stroke="black" points="2987.88,-519.75 3129.12,-519.75"/>
<polyline fill="none" stroke="black" points="2987.88,-519.75 3129.12,-519.75"/>
<text text-anchor="start" x="3056.25" y="-503.4" font-family="Times,serif" font-size="13.00" fill="red"> </text>
</g>
<!-- de_funk.core.exceptions.DeFunkError -->
<g id="node5" class="node">
<title>de_funk.core.exceptions.DeFunkError</title>
<polygon fill="none" stroke="black" points="1704.38,-668.5 1704.38,-775 1908.62,-775 1908.62,-668.5 1704.38,-668.5"/>
<text text-anchor="start" x="1763" y="-758.65" font-family="Times,serif" font-size="13.00" fill="red">DeFunkError</text>
<polyline fill="none" stroke="black" points="1704.38,-750.5 1908.62,-750.5"/>
<text text-anchor="start" x="1712.38" y="-734.15" font-family="Times,serif" font-size="13.00" fill="red">details : dict</text>
<text text-anchor="start" x="1712.38" y="-717.65" font-family="Times,serif" font-size="13.00" fill="red">message : str</text>
<text text-anchor="start" x="1712.38" y="-701.15" font-family="Times,serif" font-size="13.00" fill="red">recovery_hint : Optional[str]</text>
<polyline fill="none" stroke="black" points="1704.38,-693 1908.62,-693"/>
<text text-anchor="start" x="1804.25" y="-676.65" font-family="Times,serif" font-size="13.00" fill="red"> </text>
</g>
<!-- de_funk.core.exceptions.ConfigurationError&#45;&gt;de_funk.core.exceptions.DeFunkError -->
<g id="edge3" class="edge">
<title>de_funk.core.exceptions.ConfigurationError&#45;&gt;de_funk.core.exceptions.DeFunkError</title>
<path fill="none" stroke="black" d="M2987.45,-538.79C2933.85,-551.98 2858.38,-569.64 2791.5,-582 2477.95,-639.94 2104.32,-686.48 1920.36,-707.92"/>
<polygon fill="none" stroke="black" points="1920.09,-704.43 1910.57,-709.06 1920.9,-711.38 1920.09,-704.43"/>
</g>
<!-- de_funk.core.exceptions.ConnectionError -->
<g id="node2" class="node">
<title>de_funk.core.exceptions.ConnectionError</title>
<polygon fill="none" stroke="black" points="349.75,-474.75 349.75,-564.75 475.25,-564.75 475.25,-474.75 349.75,-474.75"/>
<text text-anchor="start" x="357.75" y="-548.4" font-family="Times,serif" font-size="13.00" fill="red">ConnectionError</text>
<polyline fill="none" stroke="black" points="349.75,-540.25 475.25,-540.25"/>
<text text-anchor="start" x="369" y="-523.9" font-family="Times,serif" font-size="13.00" fill="red">backend : str</text>
<text text-anchor="start" x="369" y="-507.4" font-family="Times,serif" font-size="13.00" fill="red">error : str</text>
<polyline fill="none" stroke="black" points="349.75,-499.25 475.25,-499.25"/>
<text text-anchor="start" x="410.25" y="-482.9" font-family="Times,serif" font-size="13.00" fill="red"> </text>
</g>
<!-- de_funk.core.exceptions.ConnectionError&#45;&gt;de_funk.core.exceptions.DeFunkError -->
<g id="edge4" class="edge">
<title>de_funk.core.exceptions.ConnectionError&#45;&gt;de_funk.core.exceptions.DeFunkError</title>
<path fill="none" stroke="black" d="M470.38,-565.23C481.25,-571.82 492.86,-577.79 504.5,-582 722.22,-660.68 1417.66,-701.99 1692.85,-715.59"/>
<polygon fill="none" stroke="black" points="1692.38,-719.07 1702.54,-716.07 1692.72,-712.08 1692.38,-719.07"/>
</g>
<!-- de_funk.core.connection.DataConnection -->
<g id="node3" class="node">
<title>de_funk.core.connection.DataConnection</title>
<polygon fill="none" stroke="black" points="3983.5,-458 3983.5,-581.5 4317.5,-581.5 4317.5,-458 3983.5,-458"/>
<text text-anchor="start" x="4098" y="-565.15" font-family="Times,serif" font-size="13.00">DataConnection</text>
<polyline fill="none" stroke="black" points="3983.5,-557 4317.5,-557"/>
<polyline fill="none" stroke="black" points="3983.5,-557 4317.5,-557"/>
<text text-anchor="start" x="3991.5" y="-541.65" font-family="Times,serif" font-style="italic" font-size="13.00">apply_filters</text>
<text text-anchor="start" x="4073.25" y="-541.65" font-family="Times,serif" font-size="13.00">(df: Any, filters: Dict[str, Any]): Any</text>
<text text-anchor="start" x="3991.5" y="-528.65" font-family="Times,serif" font-style="italic" font-size="13.00">cache</text>
<text text-anchor="start" x="4029.75" y="-528.65" font-family="Times,serif" font-size="13.00">(df: Any): Any</text>
<text text-anchor="start" x="3991.5" y="-515.65" font-family="Times,serif" font-style="italic" font-size="13.00">count</text>
<text text-anchor="start" x="4028.25" y="-515.65" font-family="Times,serif" font-size="13.00">(df: Any): int</text>
<text text-anchor="start" x="3991.5" y="-502.65" font-family="Times,serif" font-style="italic" font-size="13.00">read_table</text>
<text text-anchor="start" x="4060.5" y="-502.65" font-family="Times,serif" font-size="13.00">(path: str, format: str): Any</text>
<text text-anchor="start" x="3991.5" y="-489.65" font-family="Times,serif" font-style="italic" font-size="13.00">stop</text>
<text text-anchor="start" x="4019.25" y="-489.65" font-family="Times,serif" font-size="13.00">()</text>
<text text-anchor="start" x="3991.5" y="-476.65" font-family="Times,serif" font-style="italic" font-size="13.00">to_pandas</text>
<text text-anchor="start" x="4057.5" y="-476.65" font-family="Times,serif" font-size="13.00">(df: Any): pd.DataFrame</text>
<text text-anchor="start" x="3991.5" y="-463.65" font-family="Times,serif" font-style="italic" font-size="13.00">uncache</text>
<text text-anchor="start" x="4046.25" y="-463.65" font-family="Times,serif" font-size="13.00">(df: Any)</text>
</g>
<!-- de_funk.core.exceptions.DataNotFoundError -->
<g id="node4" class="node">
<title>de_funk.core.exceptions.DataNotFoundError</title>
<polygon fill="none" stroke="black" points="2637.88,-140.75 2637.88,-230.75 2785.12,-230.75 2785.12,-140.75 2637.88,-140.75"/>
<text text-anchor="start" x="2646.25" y="-214.4" font-family="Times,serif" font-size="13.00" fill="red">DataNotFoundError</text>
<polyline fill="none" stroke="black" points="2637.88,-206.25 2785.12,-206.25"/>
<text text-anchor="start" x="2645.88" y="-189.9" font-family="Times,serif" font-size="13.00" fill="red">path : str</text>
<text text-anchor="start" x="2645.88" y="-173.4" font-family="Times,serif" font-size="13.00" fill="red">table : Optional[str]</text>
<polyline fill="none" stroke="black" points="2637.88,-165.25 2785.12,-165.25"/>
<text text-anchor="start" x="2709.25" y="-148.9" font-family="Times,serif" font-size="13.00" fill="red"> </text>
</g>
<!-- de_funk.core.exceptions.StorageError -->
<g id="node23" class="node">
<title>de_funk.core.exceptions.StorageError</title>
<polygon fill="none" stroke="black" points="2660.38,-495.25 2660.38,-544.25 2762.62,-544.25 2762.62,-495.25 2660.38,-495.25"/>
<text text-anchor="start" x="2668.38" y="-527.9" font-family="Times,serif" font-size="13.00" fill="red">StorageError</text>
<polyline fill="none" stroke="black" points="2660.38,-519.75 2762.62,-519.75"/>
<polyline fill="none" stroke="black" points="2660.38,-519.75 2762.62,-519.75"/>
<text text-anchor="start" x="2709.25" y="-503.4" font-family="Times,serif" font-size="13.00" fill="red"> </text>
</g>
<!-- de_funk.core.exceptions.DataNotFoundError&#45;&gt;de_funk.core.exceptions.StorageError -->
<g id="edge5" class="edge">
<title>de_funk.core.exceptions.DataNotFoundError&#45;&gt;de_funk.core.exceptions.StorageError</title>
<path fill="none" stroke="black" d="M2711.5,-231.18C2711.5,-297.94 2711.5,-422.76 2711.5,-483.6"/>
<polygon fill="none" stroke="black" points="2708,-483.37 2711.5,-493.37 2715,-483.37 2708,-483.37"/>
</g>
<!-- de_funk.core.exceptions.DependencyError -->
<g id="node6" class="node">
<title>de_funk.core.exceptions.DependencyError</title>
<polygon fill="none" stroke="black" points="426.5,-140.75 426.5,-230.75 598.5,-230.75 598.5,-140.75 426.5,-140.75"/>
<text text-anchor="start" x="454.38" y="-214.4" font-family="Times,serif" font-size="13.00" fill="red">DependencyError</text>
<polyline fill="none" stroke="black" points="426.5,-206.25 598.5,-206.25"/>
<text text-anchor="start" x="434.5" y="-189.9" font-family="Times,serif" font-size="13.00" fill="red">missing_deps : List[str]</text>
<text text-anchor="start" x="434.5" y="-173.4" font-family="Times,serif" font-size="13.00" fill="red">model_name : str</text>
<polyline fill="none" stroke="black" points="426.5,-165.25 598.5,-165.25"/>
<text text-anchor="start" x="510.25" y="-148.9" font-family="Times,serif" font-size="13.00" fill="red"> </text>
</g>
<!-- de_funk.core.exceptions.ModelError -->
<g id="node16" class="node">
<title>de_funk.core.exceptions.ModelError</title>
<polygon fill="none" stroke="black" points="995.25,-495.25 995.25,-544.25 1087.75,-544.25 1087.75,-495.25 995.25,-495.25"/>
<text text-anchor="start" x="1003.25" y="-527.9" font-family="Times,serif" font-size="13.00" fill="red">ModelError</text>
<polyline fill="none" stroke="black" points="995.25,-519.75 1087.75,-519.75"/>
<polyline fill="none" stroke="black" points="995.25,-519.75 1087.75,-519.75"/>
<text text-anchor="start" x="1039.25" y="-503.4" font-family="Times,serif" font-size="13.00" fill="red"> </text>
</g>
<!-- de_funk.core.exceptions.DependencyError&#45;&gt;de_funk.core.exceptions.ModelError -->
<g id="edge6" class="edge">
<title>de_funk.core.exceptions.DependencyError&#45;&gt;de_funk.core.exceptions.ModelError</title>
<path fill="none" stroke="black" d="M529.89,-231.18C548.3,-272.85 581.15,-334.18 627.5,-371.5 735.15,-458.18 897.78,-495.92 983.66,-510.58"/>
<polygon fill="none" stroke="black" points="983.07,-514.03 993.51,-512.21 984.21,-507.12 983.07,-514.03"/>
</g>
<!-- de_funk.core.duckdb_connection.DuckDBConnection -->
<g id="node7" class="node">
<title>de_funk.core.duckdb_connection.DuckDBConnection</title>
<polygon fill="none" stroke="black" points="3426.62,-0.5 3426.62,-371 4034.38,-371 4034.38,-0.5 3426.62,-0.5"/>
<text text-anchor="start" x="3666" y="-354.65" font-family="Times,serif" font-size="13.00">DuckDBConnection</text>
<polyline fill="none" stroke="black" points="3426.62,-346.5 4034.38,-346.5"/>
<text text-anchor="start" x="3664.12" y="-330.15" font-family="Times,serif" font-size="13.00">conn : NoneType</text>
<text text-anchor="start" x="3664.12" y="-313.65" font-family="Times,serif" font-size="13.00">db_path : str</text>
<text text-anchor="start" x="3664.12" y="-297.15" font-family="Times,serif" font-size="13.00">delta_enabled : bool</text>
<polyline fill="none" stroke="black" points="3426.62,-289 4034.38,-289"/>
<text text-anchor="start" x="3434.62" y="-272.65" font-family="Times,serif" font-size="13.00">apply_filters(df: Any, filters: Dict[str, Any]): Any</text>
<text text-anchor="start" x="3434.62" y="-256.15" font-family="Times,serif" font-size="13.00">cache(df: Any, name: Optional[str]): Any</text>
<text text-anchor="start" x="3434.62" y="-239.65" font-family="Times,serif" font-size="13.00">count(df: Any): int</text>
<text text-anchor="start" x="3434.62" y="-223.15" font-family="Times,serif" font-size="13.00">createDataFrame(data: list, schema): Any</text>
<text text-anchor="start" x="3434.62" y="-206.65" font-family="Times,serif" font-size="13.00">execute(query: str): Any</text>
<text text-anchor="start" x="3434.62" y="-190.15" font-family="Times,serif" font-size="13.00">execute_sql(query: str): Any</text>
<text text-anchor="start" x="3434.62" y="-173.65" font-family="Times,serif" font-size="13.00">get_delta_table_history(path: str): pd.DataFrame</text>
<text text-anchor="start" x="3434.62" y="-157.15" font-family="Times,serif" font-size="13.00">has_view(view_name: str): bool</text>
<text text-anchor="start" x="3434.62" y="-140.65" font-family="Times,serif" font-size="13.00">optimize_delta_table(path: str, zorder_by: Optional[List[str]])</text>
<text text-anchor="start" x="3434.62" y="-124.15" font-family="Times,serif" font-size="13.00">read_parquet(path: str): Any</text>
<text text-anchor="start" x="3434.62" y="-107.65" font-family="Times,serif" font-size="13.00">read_table(path: str, format: str, version: Optional[int], timestamp: Optional[str]): Any</text>
<text text-anchor="start" x="3434.62" y="-91.15" font-family="Times,serif" font-size="13.00">stop()</text>
<text text-anchor="start" x="3434.62" y="-74.65" font-family="Times,serif" font-size="13.00">table(view_name: str): Any</text>
<text text-anchor="start" x="3434.62" y="-58.15" font-family="Times,serif" font-size="13.00">to_pandas(df: Any): pd.DataFrame</text>
<text text-anchor="start" x="3434.62" y="-41.65" font-family="Times,serif" font-size="13.00">uncache(df: Any)</text>
<text text-anchor="start" x="3434.62" y="-25.15" font-family="Times,serif" font-size="13.00">vacuum_delta_table(path: str, retention_hours: int, enforce_retention: bool)</text>
<text text-anchor="start" x="3434.62" y="-8.65" font-family="Times,serif" font-size="13.00">write_delta_table(df: pd.DataFrame, path: str, mode: str, partition_by: Optional[List[str]])</text>
</g>
<!-- de_funk.core.duckdb_connection.DuckDBConnection&#45;&gt;de_funk.core.connection.DataConnection -->
<g id="edge2" class="edge">
<title>de_funk.core.duckdb_connection.DuckDBConnection&#45;&gt;de_funk.core.connection.DataConnection</title>
<path fill="none" stroke="black" d="M3964.14,-371.44C4000.01,-399.8 4034.96,-427.42 4064.71,-450.93"/>
<polygon fill="none" stroke="black" points="4062.16,-453.38 4072.17,-456.83 4066.5,-447.89 4062.16,-453.38"/>
</g>
<!-- de_funk.core.exceptions.FilterError -->
<g id="node8" class="node">
<title>de_funk.core.exceptions.FilterError</title>
<polygon fill="none" stroke="black" points="2214.62,-140.75 2214.62,-230.75 2402.38,-230.75 2402.38,-140.75 2214.62,-140.75"/>
<text text-anchor="start" x="2272.5" y="-214.4" font-family="Times,serif" font-size="13.00" fill="red">FilterError</text>
<polyline fill="none" stroke="black" points="2214.62,-206.25 2402.38,-206.25"/>
<text text-anchor="start" x="2222.62" y="-189.9" font-family="Times,serif" font-size="13.00" fill="red">error : str</text>
<text text-anchor="start" x="2222.62" y="-173.4" font-family="Times,serif" font-size="13.00" fill="red">filter_spec : Dict[str, Any]</text>
<polyline fill="none" stroke="black" points="2214.62,-165.25 2402.38,-165.25"/>
<text text-anchor="start" x="2306.25" y="-148.9" font-family="Times,serif" font-size="13.00" fill="red"> </text>
</g>
<!-- de_funk.core.exceptions.QueryError -->
<g id="node20" class="node">
<title>de_funk.core.exceptions.QueryError</title>
<polygon fill="none" stroke="black" points="2263,-495.25 2263,-544.25 2354,-544.25 2354,-495.25 2263,-495.25"/>
<text text-anchor="start" x="2271" y="-527.9" font-family="Times,serif" font-size="13.00" fill="red">QueryError</text>
<polyline fill="none" stroke="black" points="2263,-519.75 2354,-519.75"/>
<polyline fill="none" stroke="black" points="2263,-519.75 2354,-519.75"/>
<text text-anchor="start" x="2306.25" y="-503.4" font-family="Times,serif" font-size="13.00" fill="red"> </text>
</g>
<!-- de_funk.core.exceptions.FilterError&#45;&gt;de_funk.core.exceptions.QueryError -->
<g id="edge7" class="edge">
<title>de_funk.core.exceptions.FilterError&#45;&gt;de_funk.core.exceptions.QueryError</title>
<path fill="none" stroke="black" d="M2308.5,-231.18C2308.5,-297.94 2308.5,-422.76 2308.5,-483.6"/>
<polygon fill="none" stroke="black" points="2305,-483.37 2308.5,-493.37 2312,-483.37 2305,-483.37"/>
</g>
<!-- de_funk.core.exceptions.ForecastError -->
<g id="node9" class="node">
<title>de_funk.core.exceptions.ForecastError</title>
<polygon fill="none" stroke="black" points="533.75,-495.25 533.75,-544.25 641.25,-544.25 641.25,-495.25 533.75,-495.25"/>
<text text-anchor="start" x="541.75" y="-527.9" font-family="Times,serif" font-size="13.00" fill="red">ForecastError</text>
<polyline fill="none" stroke="black" points="533.75,-519.75 641.25,-519.75"/>
<polyline fill="none" stroke="black" points="533.75,-519.75 641.25,-519.75"/>
<text text-anchor="start" x="585.25" y="-503.4" font-family="Times,serif" font-size="13.00" fill="red"> </text>
</g>
<!-- de_funk.core.exceptions.ForecastError&#45;&gt;de_funk.core.exceptions.DeFunkError -->
<g id="edge8" class="edge">
<title>de_funk.core.exceptions.ForecastError&#45;&gt;de_funk.core.exceptions.DeFunkError</title>
<path fill="none" stroke="black" d="M641.45,-529.6C826.46,-559.96 1437.83,-660.26 1693.03,-702.13"/>
<polygon fill="none" stroke="black" points="1692.25,-705.55 1702.68,-703.72 1693.38,-698.64 1692.25,-705.55"/>
</g>
<!-- de_funk.core.exceptions.IngestionError -->
<g id="node10" class="node">
<title>de_funk.core.exceptions.IngestionError</title>
<polygon fill="none" stroke="black" points="1544.12,-132.5 1544.12,-239 1656.88,-239 1656.88,-132.5 1544.12,-132.5"/>
<text text-anchor="start" x="1552.12" y="-222.65" font-family="Times,serif" font-size="13.00" fill="red">IngestionError</text>
<polyline fill="none" stroke="black" points="1544.12,-214.5 1656.88,-214.5"/>
<text text-anchor="start" x="1555.88" y="-198.15" font-family="Times,serif" font-size="13.00" fill="red">endpoint : str</text>
<text text-anchor="start" x="1555.88" y="-181.65" font-family="Times,serif" font-size="13.00" fill="red">error : str</text>
<text text-anchor="start" x="1555.88" y="-165.15" font-family="Times,serif" font-size="13.00" fill="red">provider : str</text>
<polyline fill="none" stroke="black" points="1544.12,-157 1656.88,-157"/>
<text text-anchor="start" x="1598.25" y="-140.65" font-family="Times,serif" font-size="13.00" fill="red"> </text>
</g>
<!-- de_funk.core.exceptions.PipelineError -->
<g id="node19" class="node">
<title>de_funk.core.exceptions.PipelineError</title>
<polygon fill="none" stroke="black" points="1753.88,-495.25 1753.88,-544.25 1859.12,-544.25 1859.12,-495.25 1753.88,-495.25"/>
<text text-anchor="start" x="1761.88" y="-527.9" font-family="Times,serif" font-size="13.00" fill="red">PipelineError</text>
<polyline fill="none" stroke="black" points="1753.88,-519.75 1859.12,-519.75"/>
<polyline fill="none" stroke="black" points="1753.88,-519.75 1859.12,-519.75"/>
<text text-anchor="start" x="1804.25" y="-503.4" font-family="Times,serif" font-size="13.00" fill="red"> </text>
</g>
<!-- de_funk.core.exceptions.IngestionError&#45;&gt;de_funk.core.exceptions.PipelineError -->
<g id="edge9" class="edge">
<title>de_funk.core.exceptions.IngestionError&#45;&gt;de_funk.core.exceptions.PipelineError</title>
<path fill="none" stroke="black" d="M1620.39,-239.16C1635.81,-277.18 1658.98,-329.16 1685.5,-371.5 1712.16,-414.07 1749.75,-457.93 1775.93,-486.58"/>
<polygon fill="none" stroke="black" points="1773.28,-488.87 1782.64,-493.85 1778.43,-484.13 1773.28,-488.87"/>
</g>
<!-- de_funk.core.exceptions.InsufficientDataError -->
<g id="node11" class="node">
<title>de_funk.core.exceptions.InsufficientDataError</title>
<polygon fill="none" stroke="black" points="0,-132.5 0,-239 157,-239 157,-132.5 0,-132.5"/>
<text text-anchor="start" x="8" y="-222.65" font-family="Times,serif" font-size="13.00" fill="red">InsufficientDataError</text>
<polyline fill="none" stroke="black" points="0,-214.5 157,-214.5"/>
<text text-anchor="start" x="9.88" y="-198.15" font-family="Times,serif" font-size="13.00" fill="red">available : int</text>
<text text-anchor="start" x="9.88" y="-181.65" font-family="Times,serif" font-size="13.00" fill="red">required : int</text>
<text text-anchor="start" x="9.88" y="-165.15" font-family="Times,serif" font-size="13.00" fill="red">ticker : Optional[str]</text>
<polyline fill="none" stroke="black" points="0,-157 157,-157"/>
<text text-anchor="start" x="76.25" y="-140.65" font-family="Times,serif" font-size="13.00" fill="red"> </text>
</g>
<!-- de_funk.core.exceptions.InsufficientDataError&#45;&gt;de_funk.core.exceptions.ForecastError -->
<g id="edge10" class="edge">
<title>de_funk.core.exceptions.InsufficientDataError&#45;&gt;de_funk.core.exceptions.ForecastError</title>
<path fill="none" stroke="black" d="M96.16,-239.4C112.82,-281.19 141.83,-337.99 185.5,-371.5 301.99,-460.9 372.25,-393.69 504.5,-457.5 521.17,-465.54 537.91,-477.08 551.95,-487.97"/>
<polygon fill="none" stroke="black" points="549.57,-490.55 559.57,-494.05 553.93,-485.08 549.57,-490.55"/>
</g>
<!-- de_funk.core.exceptions.InvalidConfigError -->
<g id="node12" class="node">
<title>de_funk.core.exceptions.InvalidConfigError</title>
<polygon fill="none" stroke="black" points="2988.62,-132.5 2988.62,-239 3128.38,-239 3128.38,-132.5 2988.62,-132.5"/>
<text text-anchor="start" x="2996.62" y="-222.65" font-family="Times,serif" font-size="13.00" fill="red">InvalidConfigError</text>
<polyline fill="none" stroke="black" points="2988.62,-214.5 3128.38,-214.5"/>
<text text-anchor="start" x="3007.5" y="-198.15" font-family="Times,serif" font-size="13.00" fill="red">config_key : str</text>
<text text-anchor="start" x="3007.5" y="-181.65" font-family="Times,serif" font-size="13.00" fill="red">expected : str</text>
<text text-anchor="start" x="3007.5" y="-165.15" font-family="Times,serif" font-size="13.00" fill="red">value : Any</text>
<polyline fill="none" stroke="black" points="2988.62,-157 3128.38,-157"/>
<text text-anchor="start" x="3056.25" y="-140.65" font-family="Times,serif" font-size="13.00" fill="red"> </text>
</g>
<!-- de_funk.core.exceptions.InvalidConfigError&#45;&gt;de_funk.core.exceptions.ConfigurationError -->
<g id="edge11" class="edge">
<title>de_funk.core.exceptions.InvalidConfigError&#45;&gt;de_funk.core.exceptions.ConfigurationError</title>
<path fill="none" stroke="black" d="M3058.5,-239.36C3058.5,-307.78 3058.5,-425.44 3058.5,-483.81"/>
<polygon fill="none" stroke="black" points="3055,-483.48 3058.5,-493.48 3062,-483.48 3055,-483.48"/>
</g>
<!-- de_funk.core.exceptions.JoinError -->
<g id="node13" class="node">
<title>de_funk.core.exceptions.JoinError</title>
<polygon fill="none" stroke="black" points="2460.75,-132.5 2460.75,-239 2580.25,-239 2580.25,-132.5 2460.75,-132.5"/>
<text text-anchor="start" x="2490.12" y="-222.65" font-family="Times,serif" font-size="13.00" fill="red">JoinError</text>
<polyline fill="none" stroke="black" points="2460.75,-214.5 2580.25,-214.5"/>
<text text-anchor="start" x="2468.75" y="-198.15" font-family="Times,serif" font-size="13.00" fill="red">error : str</text>
<text text-anchor="start" x="2468.75" y="-181.65" font-family="Times,serif" font-size="13.00" fill="red">left_table : str</text>
<text text-anchor="start" x="2468.75" y="-165.15" font-family="Times,serif" font-size="13.00" fill="red">right_table : str</text>
<polyline fill="none" stroke="black" points="2460.75,-157 2580.25,-157"/>
<text text-anchor="start" x="2518.25" y="-140.65" font-family="Times,serif" font-size="13.00" fill="red"> </text>
</g>
<!-- de_funk.core.exceptions.JoinError&#45;&gt;de_funk.core.exceptions.QueryError -->
<g id="edge12" class="edge">
<title>de_funk.core.exceptions.JoinError&#45;&gt;de_funk.core.exceptions.QueryError</title>
<path fill="none" stroke="black" d="M2499.39,-239.15C2483.1,-277.18 2458.79,-329.15 2431.5,-371.5 2404.11,-414 2365.96,-457.87 2339.43,-486.55"/>
<polygon fill="none" stroke="black" points="2336.9,-484.13 2332.63,-493.83 2342.02,-488.91 2336.9,-484.13"/>
</g>
<!-- de_funk.core.exceptions.MeasureError -->
<g id="node14" class="node">
<title>de_funk.core.exceptions.MeasureError</title>
<polygon fill="none" stroke="black" points="656.5,-132.5 656.5,-239 852.5,-239 852.5,-132.5 656.5,-132.5"/>
<text text-anchor="start" x="708.38" y="-222.65" font-family="Times,serif" font-size="13.00" fill="red">MeasureError</text>
<polyline fill="none" stroke="black" points="656.5,-214.5 852.5,-214.5"/>
<text text-anchor="start" x="664.5" y="-198.15" font-family="Times,serif" font-size="13.00" fill="red">error : str</text>
<text text-anchor="start" x="664.5" y="-181.65" font-family="Times,serif" font-size="13.00" fill="red">measure_name : str</text>
<text text-anchor="start" x="664.5" y="-165.15" font-family="Times,serif" font-size="13.00" fill="red">model_name : Optional[str]</text>
<polyline fill="none" stroke="black" points="656.5,-157 852.5,-157"/>
<text text-anchor="start" x="752.25" y="-140.65" font-family="Times,serif" font-size="13.00" fill="red"> </text>
</g>
<!-- de_funk.core.exceptions.MeasureError&#45;&gt;de_funk.core.exceptions.ModelError -->
<g id="edge13" class="edge">
<title>de_funk.core.exceptions.MeasureError&#45;&gt;de_funk.core.exceptions.ModelError</title>
<path fill="none" stroke="black" d="M786.08,-239.19C810.17,-277.47 845.28,-329.75 881.5,-371.5 919.31,-415.09 969,-459.11 1002.91,-487.52"/>
<polygon fill="none" stroke="black" points="1000.52,-490.08 1010.44,-493.78 1004.99,-484.7 1000.52,-490.08"/>
</g>
<!-- de_funk.core.exceptions.MissingConfigError -->
<g id="node15" class="node">
<title>de_funk.core.exceptions.MissingConfigError</title>
<polygon fill="none" stroke="black" points="3186.25,-140.75 3186.25,-230.75 3368.75,-230.75 3368.75,-140.75 3186.25,-140.75"/>
<text text-anchor="start" x="3212.25" y="-214.4" font-family="Times,serif" font-size="13.00" fill="red">MissingConfigError</text>
<polyline fill="none" stroke="black" points="3186.25,-206.25 3368.75,-206.25"/>
<text text-anchor="start" x="3194.25" y="-189.9" font-family="Times,serif" font-size="13.00" fill="red">config_file : Optional[str]</text>
<text text-anchor="start" x="3194.25" y="-173.4" font-family="Times,serif" font-size="13.00" fill="red">config_key : str</text>
<polyline fill="none" stroke="black" points="3186.25,-165.25 3368.75,-165.25"/>
<text text-anchor="start" x="3275.25" y="-148.9" font-family="Times,serif" font-size="13.00" fill="red"> </text>
</g>
<!-- de_funk.core.exceptions.MissingConfigError&#45;&gt;de_funk.core.exceptions.ConfigurationError -->
<g id="edge14" class="edge">
<title>de_funk.core.exceptions.MissingConfigError&#45;&gt;de_funk.core.exceptions.ConfigurationError</title>
<path fill="none" stroke="black" d="M3249.09,-230.93C3224.89,-268.43 3189.13,-323.64 3157.5,-371.5 3131.56,-410.75 3101.33,-455.58 3081.17,-485.36"/>
<polygon fill="none" stroke="black" points="3078.3,-483.36 3075.58,-493.6 3084.09,-487.29 3078.3,-483.36"/>
</g>
<!-- de_funk.core.exceptions.ModelError&#45;&gt;de_funk.core.exceptions.DeFunkError -->
<g id="edge15" class="edge">
<title>de_funk.core.exceptions.ModelError&#45;&gt;de_funk.core.exceptions.DeFunkError</title>
<path fill="none" stroke="black" d="M1088.2,-532.96C1206.84,-563.98 1522.48,-646.5 1693.16,-691.12"/>
<polygon fill="none" stroke="black" points="1692.16,-694.48 1702.72,-693.62 1693.93,-687.7 1692.16,-694.48"/>
</g>
<!-- de_funk.core.exceptions.ModelNotFoundError -->
<g id="node17" class="node">
<title>de_funk.core.exceptions.ModelNotFoundError</title>
<polygon fill="none" stroke="black" points="910.12,-140.75 910.12,-230.75 1172.88,-230.75 1172.88,-140.75 910.12,-140.75"/>
<text text-anchor="start" x="971" y="-214.4" font-family="Times,serif" font-size="13.00" fill="red">ModelNotFoundError</text>
<polyline fill="none" stroke="black" points="910.12,-206.25 1172.88,-206.25"/>
<text text-anchor="start" x="918.12" y="-189.9" font-family="Times,serif" font-size="13.00" fill="red">available_models : Optional[List[str]]</text>
<text text-anchor="start" x="918.12" y="-173.4" font-family="Times,serif" font-size="13.00" fill="red">model_name : str</text>
<polyline fill="none" stroke="black" points="910.12,-165.25 1172.88,-165.25"/>
<text text-anchor="start" x="1039.25" y="-148.9" font-family="Times,serif" font-size="13.00" fill="red"> </text>
</g>
<!-- de_funk.core.exceptions.ModelNotFoundError&#45;&gt;de_funk.core.exceptions.ModelError -->
<g id="edge16" class="edge">
<title>de_funk.core.exceptions.ModelNotFoundError&#45;&gt;de_funk.core.exceptions.ModelError</title>
<path fill="none" stroke="black" d="M1041.5,-231.18C1041.5,-297.94 1041.5,-422.76 1041.5,-483.6"/>
<polygon fill="none" stroke="black" points="1038,-483.37 1041.5,-493.37 1045,-483.37 1038,-483.37"/>
</g>
<!-- de_funk.core.exceptions.ModelTrainingError -->
<g id="node18" class="node">
<title>de_funk.core.exceptions.ModelTrainingError</title>
<polygon fill="none" stroke="black" points="214.88,-132.5 214.88,-239 368.12,-239 368.12,-132.5 214.88,-132.5"/>
<text text-anchor="start" x="225.12" y="-222.65" font-family="Times,serif" font-size="13.00" fill="red">ModelTrainingError</text>
<polyline fill="none" stroke="black" points="214.88,-214.5 368.12,-214.5"/>
<text text-anchor="start" x="222.88" y="-198.15" font-family="Times,serif" font-size="13.00" fill="red">error : str</text>
<text text-anchor="start" x="222.88" y="-181.65" font-family="Times,serif" font-size="13.00" fill="red">model_type : str</text>
<text text-anchor="start" x="222.88" y="-165.15" font-family="Times,serif" font-size="13.00" fill="red">ticker : Optional[str]</text>
<polyline fill="none" stroke="black" points="214.88,-157 368.12,-157"/>
<text text-anchor="start" x="289.25" y="-140.65" font-family="Times,serif" font-size="13.00" fill="red"> </text>
</g>
<!-- de_funk.core.exceptions.ModelTrainingError&#45;&gt;de_funk.core.exceptions.ForecastError -->
<g id="edge17" class="edge">
<title>de_funk.core.exceptions.ModelTrainingError&#45;&gt;de_funk.core.exceptions.ForecastError</title>
<path fill="none" stroke="black" d="M314.74,-239.24C333.57,-278.27 362.66,-331.47 397.5,-371.5 409.52,-385.31 494.32,-449.36 546.49,-488.3"/>
<polygon fill="none" stroke="black" points="544.19,-490.95 554.3,-494.12 548.37,-485.34 544.19,-490.95"/>
</g>
<!-- de_funk.core.exceptions.PipelineError&#45;&gt;de_funk.core.exceptions.DeFunkError -->
<g id="edge18" class="edge">
<title>de_funk.core.exceptions.PipelineError&#45;&gt;de_funk.core.exceptions.DeFunkError</title>
<path fill="none" stroke="black" d="M1806.5,-544.48C1806.5,-572.07 1806.5,-618.74 1806.5,-657.13"/>
<polygon fill="none" stroke="black" points="1803,-656.72 1806.5,-666.72 1810,-656.72 1803,-656.72"/>
</g>
<!-- de_funk.core.exceptions.QueryError&#45;&gt;de_funk.core.exceptions.DeFunkError -->
<g id="edge19" class="edge">
<title>de_funk.core.exceptions.QueryError&#45;&gt;de_funk.core.exceptions.DeFunkError</title>
<path fill="none" stroke="black" d="M2262.62,-539.03C2185.44,-569.78 2027.47,-632.71 1919.28,-675.82"/>
<polygon fill="none" stroke="black" points="1918.04,-672.54 1910.05,-679.5 1920.63,-679.05 1918.04,-672.54"/>
</g>
<!-- de_funk.core.exceptions.RateLimitError -->
<g id="node21" class="node">
<title>de_funk.core.exceptions.RateLimitError</title>
<polygon fill="none" stroke="black" points="1714.5,-140.75 1714.5,-230.75 1898.5,-230.75 1898.5,-140.75 1714.5,-140.75"/>
<text text-anchor="start" x="1756.25" y="-214.4" font-family="Times,serif" font-size="13.00" fill="red">RateLimitError</text>
<polyline fill="none" stroke="black" points="1714.5,-206.25 1898.5,-206.25"/>
<text text-anchor="start" x="1722.5" y="-189.9" font-family="Times,serif" font-size="13.00" fill="red">provider : str</text>
<text text-anchor="start" x="1722.5" y="-173.4" font-family="Times,serif" font-size="13.00" fill="red">retry_after : Optional[int]</text>
<polyline fill="none" stroke="black" points="1714.5,-165.25 1898.5,-165.25"/>
<text text-anchor="start" x="1804.25" y="-148.9" font-family="Times,serif" font-size="13.00" fill="red"> </text>
</g>
<!-- de_funk.core.exceptions.RateLimitError&#45;&gt;de_funk.core.exceptions.PipelineError -->
<g id="edge20" class="edge">
<title>de_funk.core.exceptions.RateLimitError&#45;&gt;de_funk.core.exceptions.PipelineError</title>
<path fill="none" stroke="black" d="M1806.5,-231.18C1806.5,-297.94 1806.5,-422.76 1806.5,-483.6"/>
<polygon fill="none" stroke="black" points="1803,-483.37 1806.5,-493.37 1810,-483.37 1803,-483.37"/>
</g>
<!-- de_funk.core.connection.SparkConnection -->
<g id="node22" class="node">
<title>de_funk.core.connection.SparkConnection</title>
<polygon fill="none" stroke="black" points="4092.62,-50 4092.62,-321.5 5048.38,-321.5 5048.38,-50 4092.62,-50"/>
<text text-anchor="start" x="4513.88" y="-305.15" font-family="Times,serif" font-size="13.00">SparkConnection</text>
<polyline fill="none" stroke="black" points="4092.62,-297 5048.38,-297"/>
<text text-anchor="start" x="4500.38" y="-280.65" font-family="Times,serif" font-size="13.00">delta_available : bool</text>
<text text-anchor="start" x="4500.38" y="-264.15" font-family="Times,serif" font-size="13.00">spark</text>
<polyline fill="none" stroke="black" points="4092.62,-256 5048.38,-256"/>
<text text-anchor="start" x="4100.62" y="-239.65" font-family="Times,serif" font-size="13.00">apply_filters(df, filters: Dict[str, Any])</text>
<text text-anchor="start" x="4100.62" y="-223.15" font-family="Times,serif" font-size="13.00">cache(df)</text>
<text text-anchor="start" x="4100.62" y="-206.65" font-family="Times,serif" font-size="13.00">count(df): int</text>
<text text-anchor="start" x="4100.62" y="-190.15" font-family="Times,serif" font-size="13.00">get_delta_table_history(path: str, limit: Optional[int]): pd.DataFrame</text>
<text text-anchor="start" x="4100.62" y="-173.65" font-family="Times,serif" font-size="13.00">merge_delta_table(source_df, target_path: str, merge_condition: str, update_set: Optional[Dict[str, str]], insert_values: Optional[Dict[str, str]])</text>
<text text-anchor="start" x="4100.62" y="-157.15" font-family="Times,serif" font-size="13.00">optimize_delta_table(path: str, zorder_by: Optional[List[str]])</text>
<text text-anchor="start" x="4100.62" y="-140.65" font-family="Times,serif" font-size="13.00">read_table(path: str, format: str, version: Optional[int], timestamp: Optional[str])</text>
<text text-anchor="start" x="4100.62" y="-124.15" font-family="Times,serif" font-size="13.00">stop()</text>
<text text-anchor="start" x="4100.62" y="-107.65" font-family="Times,serif" font-size="13.00">to_pandas(df): pd.DataFrame</text>
<text text-anchor="start" x="4100.62" y="-91.15" font-family="Times,serif" font-size="13.00">uncache(df)</text>
<text text-anchor="start" x="4100.62" y="-74.65" font-family="Times,serif" font-size="13.00">vacuum_delta_table(path: str, retention_hours: int)</text>
<text text-anchor="start" x="4100.62" y="-58.15" font-family="Times,serif" font-size="13.00">write_delta_table(df, path: str, mode: str, partition_by: Optional[List[str]])</text>
</g>
<!-- de_funk.core.connection.SparkConnection&#45;&gt;de_funk.core.connection.DataConnection -->
<g id="edge1" class="edge">
<title>de_funk.core.connection.SparkConnection&#45;&gt;de_funk.core.connection.DataConnection</title>
<path fill="none" stroke="black" d="M4399.67,-321.79C4343.66,-366.06 4283.8,-413.38 4236.8,-450.54"/>
<polygon fill="none" stroke="black" points="4234.73,-447.7 4229.06,-456.65 4239.07,-453.2 4234.73,-447.7"/>
</g>
<!-- de_funk.core.exceptions.StorageError&#45;&gt;de_funk.core.exceptions.DeFunkError -->
<g id="edge21" class="edge">
<title>de_funk.core.exceptions.StorageError&#45;&gt;de_funk.core.exceptions.DeFunkError</title>
<path fill="none" stroke="black" d="M2659.92,-532.15C2517.77,-563.56 2117.81,-651.95 1920.08,-695.65"/>
<polygon fill="none" stroke="black" points="1919.57,-692.18 1910.56,-697.75 1921.08,-699.01 1919.57,-692.18"/>
</g>
<!-- de_funk.core.exceptions.TableNotFoundError -->
<g id="node24" class="node">
<title>de_funk.core.exceptions.TableNotFoundError</title>
<polygon fill="none" stroke="black" points="1230.5,-132.5 1230.5,-239 1486.5,-239 1486.5,-132.5 1230.5,-132.5"/>
<text text-anchor="start" x="1291" y="-222.65" font-family="Times,serif" font-size="13.00" fill="red">TableNotFoundError</text>
<polyline fill="none" stroke="black" points="1230.5,-214.5 1486.5,-214.5"/>
<text text-anchor="start" x="1238.5" y="-198.15" font-family="Times,serif" font-size="13.00" fill="red">available_tables : Optional[List[str]]</text>
<text text-anchor="start" x="1238.5" y="-181.65" font-family="Times,serif" font-size="13.00" fill="red">model_name : str</text>
<text text-anchor="start" x="1238.5" y="-165.15" font-family="Times,serif" font-size="13.00" fill="red">table_name : str</text>
<polyline fill="none" stroke="black" points="1230.5,-157 1486.5,-157"/>
<text text-anchor="start" x="1356.25" y="-140.65" font-family="Times,serif" font-size="13.00" fill="red"> </text>
</g>
<!-- de_funk.core.exceptions.TableNotFoundError&#45;&gt;de_funk.core.exceptions.ModelError -->
<g id="edge22" class="edge">
<title>de_funk.core.exceptions.TableNotFoundError&#45;&gt;de_funk.core.exceptions.ModelError</title>
<path fill="none" stroke="black" d="M1316.82,-239.2C1286.08,-277.01 1242.63,-328.71 1201.5,-371.5 1161.03,-413.6 1111.06,-458.58 1077.84,-487.59"/>
<polygon fill="none" stroke="black" points="1075.74,-484.78 1070.49,-493.98 1080.33,-490.06 1075.74,-484.78"/>
</g>
<!-- de_funk.core.exceptions.TransformationError -->
<g id="node25" class="node">
<title>de_funk.core.exceptions.TransformationError</title>
<polygon fill="none" stroke="black" points="1956.25,-132.5 1956.25,-239 2156.75,-239 2156.75,-132.5 1956.25,-132.5"/>
<text text-anchor="start" x="1988.62" y="-222.65" font-family="Times,serif" font-size="13.00" fill="red">TransformationError</text>
<polyline fill="none" stroke="black" points="1956.25,-214.5 2156.75,-214.5"/>
<text text-anchor="start" x="1964.25" y="-198.15" font-family="Times,serif" font-size="13.00" fill="red">error : str</text>
<text text-anchor="start" x="1964.25" y="-181.65" font-family="Times,serif" font-size="13.00" fill="red">record_count : Optional[int]</text>
<text text-anchor="start" x="1964.25" y="-165.15" font-family="Times,serif" font-size="13.00" fill="red">stage : str</text>
<polyline fill="none" stroke="black" points="1956.25,-157 2156.75,-157"/>
<text text-anchor="start" x="2054.25" y="-140.65" font-family="Times,serif" font-size="13.00" fill="red"> </text>
</g>
<!-- de_funk.core.exceptions.TransformationError&#45;&gt;de_funk.core.exceptions.PipelineError -->
<g id="edge23" class="edge">
<title>de_funk.core.exceptions.TransformationError&#45;&gt;de_funk.core.exceptions.PipelineError</title>
<path fill="none" stroke="black" d="M2021.42,-239.29C1996.07,-276.7 1960.59,-327.86 1927.5,-371.5 1896.79,-412 1859.37,-456.92 1834.35,-486.36"/>
<polygon fill="none" stroke="black" points="1831.81,-483.95 1827.98,-493.83 1837.13,-488.49 1831.81,-483.95"/>
</g>
<!-- de_funk.core.exceptions.WriteError -->
<g id="node26" class="node">
<title>de_funk.core.exceptions.WriteError</title>
<polygon fill="none" stroke="black" points="2842.88,-140.75 2842.88,-230.75 2930.12,-230.75 2930.12,-140.75 2842.88,-140.75"/>
<text text-anchor="start" x="2850.88" y="-214.4" font-family="Times,serif" font-size="13.00" fill="red">WriteError</text>
<polyline fill="none" stroke="black" points="2842.88,-206.25 2930.12,-206.25"/>
<text text-anchor="start" x="2854.25" y="-189.9" font-family="Times,serif" font-size="13.00" fill="red">error : str</text>
<text text-anchor="start" x="2854.25" y="-173.4" font-family="Times,serif" font-size="13.00" fill="red">path : str</text>
<polyline fill="none" stroke="black" points="2842.88,-165.25 2930.12,-165.25"/>
<text text-anchor="start" x="2884.25" y="-148.9" font-family="Times,serif" font-size="13.00" fill="red"> </text>
</g>
<!-- de_funk.core.exceptions.WriteError&#45;&gt;de_funk.core.exceptions.StorageError -->
<g id="edge24" class="edge">
<title>de_funk.core.exceptions.WriteError&#45;&gt;de_funk.core.exceptions.StorageError</title>
<path fill="none" stroke="black" d="M2872.6,-230.98C2859.79,-269.25 2839.09,-325.51 2814.5,-371.5 2792.2,-413.21 2760.19,-457.15 2737.79,-486.06"/>
<polygon fill="none" stroke="black" points="2735.22,-483.67 2731.82,-493.71 2740.73,-487.98 2735.22,-483.67"/>
</g>
</g>
</svg>
