<?xml version="1.0" encoding="UTF-8" standalone="no"?>
<!DOCTYPE svg PUBLIC "-//W3C//DTD SVG 1.1//EN"
 "http://www.w3.org/Graphics/SVG/1.1/DTD/svg11.dtd">
<!-- Generated by graphviz version 12.2.1 (0)
 -->
<!-- Title: packages_core Pages: 1 -->
<svg width="1745pt" height="547pt"
 viewBox="0.00 0.00 1308.75 410.00" xmlns="http://www.w3.org/2000/svg" xmlns:xlink="http://www.w3.org/1999/xlink">
<g id="graph0" class="graph" transform="scale(1.33333 1.33333) rotate(0) translate(4 406)">
<title>packages_core</title>
<polygon fill="white" stroke="none" points="-4,4 -4,-406 1304.75,-406 1304.75,4 -4,4"/>
<!-- de_funk.core -->
<g id="node1" class="node">
<title>de_funk.core</title>
<polygon fill="none" stroke="black" points="438.75,-36 338,-36 338,0 438.75,0 438.75,-36"/>
<text text-anchor="middle" x="388.38" y="-13.9" font-family="Times,serif" font-size="13.00">de_funk.core</text>
</g>
<!-- de_funk.core.connection -->
<g id="node2" class="node">
<title>de_funk.core.connection</title>
<polygon fill="none" stroke="black" points="205,-280 27.75,-280 27.75,-244 205,-244 205,-280"/>
<text text-anchor="middle" x="116.38" y="-257.9" font-family="Times,serif" font-size="13.00">de_funk.core.connection</text>
</g>
<!-- de_funk.core&#45;&gt;de_funk.core.connection -->
<g id="edge1" class="edge">
<title>de_funk.core&#45;&gt;de_funk.core.connection</title>
<path fill="none" stroke="black" d="M337.65,-25.73C246.41,-38.98 60.54,-71.62 22.38,-122 -7.34,-161.24 43.11,-209.23 80.86,-237.33"/>
<polygon fill="black" stroke="black" points="88.65,-242.97 77.91,-240.75 85.59,-240.75 80.55,-237.11 80.55,-237.11 80.55,-237.11 85.59,-240.75 83.19,-233.46 88.65,-242.97"/>
</g>
<!-- de_funk.core.context -->
<g id="node3" class="node">
<title>de_funk.core.context</title>
<polygon fill="none" stroke="black" points="205.38,-158 51.38,-158 51.38,-122 205.38,-122 205.38,-158"/>
<text text-anchor="middle" x="128.38" y="-135.9" font-family="Times,serif" font-size="13.00">de_funk.core.context</text>
</g>
<!-- de_funk.core&#45;&gt;de_funk.core.context -->
<g id="edge2" class="edge">
<title>de_funk.core&#45;&gt;de_funk.core.context</title>
<path fill="none" stroke="black" d="M350.57,-36.45C304.45,-57.73 226.44,-93.74 176.2,-116.93"/>
<polygon fill="black" stroke="black" points="167.33,-121.02 174.53,-112.74 170.77,-119.43 176.41,-116.83 176.41,-116.83 176.41,-116.83 170.77,-119.43 178.3,-120.91 167.33,-121.02"/>
</g>
<!-- de_funk.core.duckdb_connection -->
<g id="node4" class="node">
<title>de_funk.core.duckdb_connection</title>
<polygon fill="none" stroke="black" points="232.75,-402 0,-402 0,-366 232.75,-366 232.75,-402"/>
<text text-anchor="middle" x="116.38" y="-379.9" font-family="Times,serif" font-size="13.00">de_funk.core.duckdb_connection</text>
</g>
<!-- de_funk.core&#45;&gt;de_funk.core.duckdb_connection -->
<g id="edge3" class="edge">
<title>de_funk.core&#45;&gt;de_funk.core.duckdb_connection</title>
<path fill="none" stroke="black" d="M380.53,-36.39C360.31,-80.15 303.12,-197.23 234.38,-280 209.15,-310.37 174.59,-339.42 149.39,-358.88"/>
<polygon fill="black" stroke="black" points="141.54,-364.86 146.77,-355.22 144.54,-362.57 149.49,-358.8 149.49,-358.8 149.49,-358.8 144.54,-362.57 152.22,-362.38 141.54,-364.86"/>
</g>
<!-- de_funk.core.error_handling -->
<g id="node5" class="node">
<title>de_funk.core.error_handling</title>
<polygon fill="none" stroke="black" points="583.75,-158 381,-158 381,-122 583.75,-122 583.75,-158"/>
<text text-anchor="middle" x="482.38" y="-135.9" font-family="Times,serif" font-size="13.00">de_funk.core.error_handling</text>
</g>
<!-- de_funk.core&#45;&gt;de_funk.core.error_handling -->
<g id="edge4" class="edge">
<title>de_funk.core&#45;&gt;de_funk.core.error_handling</title>
<path fill="none" stroke="black" d="M402.04,-36.45C417.78,-56.53 443.78,-89.73 461.92,-112.89"/>
<polygon fill="black" stroke="black" points="467.94,-120.57 458.23,-115.47 465.61,-117.59 461.77,-112.7 461.77,-112.7 461.77,-112.7 465.61,-117.59 465.31,-109.92 467.94,-120.57"/>
</g>
<!-- de_funk.core.exceptions -->
<g id="node6" class="node">
<title>de_funk.core.exceptions</title>
<polygon fill="none" stroke="black" points="817.25,-158 641.5,-158 641.5,-122 817.25,-122 817.25,-158"/>
<text text-anchor="middle" x="729.38" y="-135.9" font-family="Times,serif" font-size="13.00">de_funk.core.exceptions</text>
</g>
<!-- de_funk.core&#45;&gt;de_funk.core.exceptions -->
<g id="edge5" class="edge">
<title>de_funk.core&#45;&gt;de_funk.core.exceptions</title>
<path fill="none" stroke="black" d="M437.96,-36.45C499.33,-58.04 603.75,-94.79 669.52,-117.94"/>
<polygon fill="black" stroke="black" points="678.58,-121.13 667.65,-122.05 675.01,-119.87 669.15,-117.81 669.15,-117.81 669.15,-117.81 675.01,-119.87 670.64,-113.56 678.58,-121.13"/>
</g>
<!-- de_funk.core.validation -->
<g id="node9" class="node">
<title>de_funk.core.validation</title>
<polygon fill="none" stroke="black" points="1045.62,-158 875.12,-158 875.12,-122 1045.62,-122 1045.62,-158"/>
<text text-anchor="middle" x="960.38" y="-135.9" font-family="Times,serif" font-size="13.00">de_funk.core.validation</text>
</g>
<!-- de_funk.core&#45;&gt;de_funk.core.validation -->
<g id="edge6" class="edge">
<title>de_funk.core&#45;&gt;de_funk.core.validation</title>
<path fill="none" stroke="black" d="M439.14,-29.65C535.08,-49.78 744.35,-93.68 866.54,-119.31"/>
<polygon fill="black" stroke="black" points="876.17,-121.33 865.46,-123.69 872.47,-120.56 866.38,-119.28 866.38,-119.28 866.38,-119.28 872.47,-120.56 867.31,-114.88 876.17,-121.33"/>
</g>
<!-- de_funk.core.connection&#45;&gt;de_funk.core.duckdb_connection -->
<g id="edge7" class="edge">
<title>de_funk.core.connection&#45;&gt;de_funk.core.duckdb_connection</title>
<path fill="none" stroke="black" d="M100.5,-280.45C93.8,-299.91 92.83,-331.68 97.59,-354.71"/>
<polygon fill="black" stroke="black" points="100.17,-364.35 93.24,-355.86 99.19,-360.7 97.58,-354.69 97.58,-354.69 97.58,-354.69 99.19,-360.7 101.93,-353.53 100.17,-364.35"/>
</g>
<!-- de_funk.core.context&#45;&gt;de_funk.core.connection -->
<g id="edge8" class="edge">
<title>de_funk.core.context&#45;&gt;de_funk.core.connection</title>
<path fill="none" stroke="black" d="M126.63,-158.45C124.69,-177.82 121.54,-209.39 119.24,-232.39"/>
<polygon fill="black" stroke="black" points="118.24,-242.32 114.76,-231.92 118.62,-238.55 119.24,-232.37 119.24,-232.37 119.24,-232.37 118.62,-238.55 123.72,-232.81 118.24,-242.32"/>
</g>
<!-- de_funk.core.duckdb_connection&#45;&gt;de_funk.core.connection -->
<g id="edge9" class="edge">
<title>de_funk.core.duckdb_connection&#45;&gt;de_funk.core.connection</title>
<path fill="none" stroke="black" d="M132.26,-365.53C138.95,-346.06 139.92,-314.29 135.16,-291.27"/>
<polygon fill="black" stroke="black" points="132.57,-281.63 139.51,-290.12 133.55,-285.28 135.16,-291.28 135.16,-291.28 135.16,-291.28 133.55,-285.28 130.82,-292.45 132.57,-281.63"/>
</g>
<!-- de_funk.core.session -->
<g id="node7" class="node">
<title>de_funk.core.session</title>
<polygon fill="none" stroke="black" points="1279,-36 1125.75,-36 1125.75,0 1279,0 1279,-36"/>
<text text-anchor="middle" x="1202.38" y="-13.9" font-family="Times,serif" font-size="13.00">de_funk.core.session</text>
</g>
<!-- de_funk.core.session.filters -->
<g id="node8" class="node">
<title>de_funk.core.session.filters</title>
<polygon fill="none" stroke="black" points="1300.75,-158 1104,-158 1104,-122 1300.75,-122 1300.75,-158"/>
<text text-anchor="middle" x="1202.38" y="-135.9" font-family="Times,serif" font-size="13.00">de_funk.core.session.filters</text>
</g>
<!-- de_funk.core.session&#45;&gt;de_funk.core.session.filters -->
<g id="edge10" class="edge">
<title>de_funk.core.session&#45;&gt;de_funk.core.session.filters</title>
<path fill="none" stroke="black" d="M1202.38,-36.45C1202.38,-55.82 1202.38,-87.39 1202.38,-110.39"/>
<polygon fill="black" stroke="black" points="1202.38,-120.31 1197.88,-110.31 1202.38,-116.53 1202.38,-110.31 1202.38,-110.31 1202.38,-110.31 1202.38,-116.53 1206.88,-110.31 1202.38,-120.31"/>
</g>
</g>
</svg>
