<?xml version="1.0" encoding="UTF-8" standalone="no"?>
<!DOCTYPE svg PUBLIC "-//W3C//DTD SVG 1.1//EN"
 "http://www.w3.org/Graphics/SVG/1.1/DTD/svg11.dtd">
<!-- Generated by graphviz version 12.2.1 (0)
 -->
<!-- Title: packages_api Pages: 1 -->
<svg width="5342pt" height="709pt"
 viewBox="0.00 0.00 4006.26 532.00" xmlns="http://www.w3.org/2000/svg" xmlns:xlink="http://www.w3.org/1999/xlink">
<g id="graph0" class="graph" transform="scale(1.33333 1.33333) rotate(0) translate(4 528)">
<title>packages_api</title>
<polygon fill="white" stroke="none" points="-4,4 -4,-528 4002.26,-528 4002.26,4 -4,4"/>
<!-- de_funk.api.bronze_resolver -->
<g id="node1" class="node">
<title>de_funk.api.bronze_resolver</title>
<polygon fill="none" stroke="black" points="3795.76,-158 3594.51,-158 3594.51,-122 3795.76,-122 3795.76,-158"/>
<text text-anchor="middle" x="3695.14" y="-135.9" font-family="Times,serif" font-size="13.00">de_funk.api.bronze_resolver</text>
</g>
<!-- de_funk.api.resolver -->
<g id="node16" class="node">
<title>de_funk.api.resolver</title>
<polygon fill="none" stroke="black" points="3026.26,-524 2876.01,-524 2876.01,-488 3026.26,-488 3026.26,-524"/>
<text text-anchor="middle" x="2951.14" y="-501.9" font-family="Times,serif" font-size="13.00">de_funk.api.resolver</text>
</g>
<!-- de_funk.api.bronze_resolver&#45;&gt;de_funk.api.resolver -->
<g id="edge1" class="edge">
<title>de_funk.api.bronze_resolver&#45;&gt;de_funk.api.resolver</title>
<path fill="none" stroke="black" d="M3691.12,-158.16C3679.03,-205.66 3638.29,-339.47 3550.14,-402 3469.14,-459.46 3183.44,-488.1 3037.83,-499.25"/>
<polygon fill="black" stroke="black" points="3027.96,-499.99 3037.59,-494.75 3031.73,-499.71 3037.93,-499.24 3037.93,-499.24 3037.93,-499.24 3031.73,-499.71 3038.27,-503.73 3027.96,-499.99"/>
</g>
<!-- de_funk.api.executor -->
<g id="node2" class="node">
<title>de_funk.api.executor</title>
<polygon fill="none" stroke="black" points="2946.14,-402 2792.14,-402 2792.14,-366 2946.14,-366 2946.14,-402"/>
<text text-anchor="middle" x="2869.14" y="-379.9" font-family="Times,serif" font-size="13.00">de_funk.api.executor</text>
</g>
<!-- de_funk.api.executor&#45;&gt;de_funk.api.resolver -->
<g id="edge2" class="edge">
<title>de_funk.api.executor&#45;&gt;de_funk.api.resolver</title>
<path fill="none" stroke="black" d="M2881.06,-402.45C2894.66,-422.36 2917.06,-455.14 2932.87,-478.27"/>
<polygon fill="black" stroke="black" points="2938.51,-486.52 2929.15,-480.81 2936.38,-483.4 2932.87,-478.27 2932.87,-478.27 2932.87,-478.27 2936.38,-483.4 2936.58,-475.73 2938.51,-486.52"/>
</g>
<!-- de_funk.api.handlers -->
<g id="node3" class="node">
<title>de_funk.api.handlers</title>
<polygon fill="none" stroke="black" points="2638.14,-158 2484.14,-158 2484.14,-122 2638.14,-122 2638.14,-158"/>
<text text-anchor="middle" x="2561.14" y="-135.9" font-family="Times,serif" font-size="13.00">de_funk.api.handlers</text>
</g>
<!-- de_funk.api.handlers&#45;&gt;de_funk.api.executor -->
<g id="edge3" class="edge">
<title>de_funk.api.handlers&#45;&gt;de_funk.api.executor</title>
<path fill="none" stroke="black" d="M2638.37,-156.57C2692.5,-171.04 2763.28,-197.57 2810.14,-244 2841.01,-274.6 2856.64,-323.87 2863.82,-354.79"/>
<polygon fill="black" stroke="black" points="2865.92,-364.48 2859.41,-355.66 2865.12,-360.78 2863.8,-354.7 2863.8,-354.7 2863.8,-354.7 2865.12,-360.78 2868.2,-353.75 2865.92,-364.48"/>
</g>
<!-- de_funk.api.handlers.base -->
<g id="node4" class="node">
<title>de_funk.api.handlers.base</title>
<polygon fill="none" stroke="black" points="2262.39,-402 2073.89,-402 2073.89,-366 2262.39,-366 2262.39,-402"/>
<text text-anchor="middle" x="2168.14" y="-379.9" font-family="Times,serif" font-size="13.00">de_funk.api.handlers.base</text>
</g>
<!-- de_funk.api.handlers&#45;&gt;de_funk.api.handlers.base -->
<g id="edge4" class="edge">
<title>de_funk.api.handlers&#45;&gt;de_funk.api.handlers.base</title>
<path fill="none" stroke="black" d="M2488.98,-158.49C2432.08,-174.58 2352.54,-202.32 2292.14,-244 2247.03,-275.13 2207.3,-325.96 2185.6,-356.76"/>
<polygon fill="black" stroke="black" points="2180.15,-364.63 2182.14,-353.85 2182.3,-361.52 2185.84,-356.41 2185.84,-356.41 2185.84,-356.41 2182.3,-361.52 2189.54,-358.97 2180.15,-364.63"/>
</g>
<!-- de_funk.api.handlers.box -->
<g id="node5" class="node">
<title>de_funk.api.handlers.box</title>
<polygon fill="none" stroke="black" points="2781.01,-280 2599.26,-280 2599.26,-244 2781.01,-244 2781.01,-280"/>
<text text-anchor="middle" x="2690.14" y="-257.9" font-family="Times,serif" font-size="13.00">de_funk.api.handlers.box</text>
</g>
<!-- de_funk.api.handlers&#45;&gt;de_funk.api.handlers.box -->
<g id="edge5" class="edge">
<title>de_funk.api.handlers&#45;&gt;de_funk.api.handlers.box</title>
<path fill="none" stroke="black" d="M2579.89,-158.45C2601.87,-178.89 2638.43,-212.9 2663.38,-236.11"/>
<polygon fill="black" stroke="black" points="2670.46,-242.7 2660.08,-239.18 2667.69,-240.12 2663.14,-235.89 2663.14,-235.89 2663.14,-235.89 2667.69,-240.12 2666.21,-232.59 2670.46,-242.7"/>
</g>
<!-- de_funk.api.handlers.graphical -->
<g id="node7" class="node">
<title>de_funk.api.handlers.graphical</title>
<polygon fill="none" stroke="black" points="2541.51,-280 2320.76,-280 2320.76,-244 2541.51,-244 2541.51,-280"/>
<text text-anchor="middle" x="2431.14" y="-257.9" font-family="Times,serif" font-size="13.00">de_funk.api.handlers.graphical</text>
</g>
<!-- de_funk.api.handlers&#45;&gt;de_funk.api.handlers.graphical -->
<g id="edge6" class="edge">
<title>de_funk.api.handlers&#45;&gt;de_funk.api.handlers.graphical</title>
<path fill="none" stroke="black" d="M2542.23,-158.45C2520.09,-178.89 2483.24,-212.9 2458.1,-236.11"/>
<polygon fill="black" stroke="black" points="2450.96,-242.7 2455.25,-232.61 2453.74,-240.14 2458.3,-235.92 2458.3,-235.92 2458.3,-235.92 2453.74,-240.14 2461.36,-239.23 2450.96,-242.7"/>
</g>
<!-- de_funk.api.handlers.metrics -->
<g id="node9" class="node">
<title>de_funk.api.handlers.metrics</title>
<polygon fill="none" stroke="black" points="2090.14,-280 1882.14,-280 1882.14,-244 2090.14,-244 2090.14,-280"/>
<text text-anchor="middle" x="1986.14" y="-257.9" font-family="Times,serif" font-size="13.00">de_funk.api.handlers.metrics</text>
</g>
<!-- de_funk.api.handlers&#45;&gt;de_funk.api.handlers.metrics -->
<g id="edge7" class="edge">
<title>de_funk.api.handlers&#45;&gt;de_funk.api.handlers.metrics</title>
<path fill="none" stroke="black" d="M2483.89,-157.12C2379.3,-178.95 2192.8,-217.87 2080.18,-241.37"/>
<polygon fill="black" stroke="black" points="2070.71,-243.35 2079.58,-236.9 2074.42,-242.58 2080.5,-241.31 2080.5,-241.31 2080.5,-241.31 2074.42,-242.58 2081.42,-245.71 2070.71,-243.35"/>
</g>
<!-- de_funk.api.handlers.pivot -->
<g id="node10" class="node">
<title>de_funk.api.handlers.pivot</title>
<polygon fill="none" stroke="black" points="1593.89,-280 1402.39,-280 1402.39,-244 1593.89,-244 1593.89,-280"/>
<text text-anchor="middle" x="1498.14" y="-257.9" font-family="Times,serif" font-size="13.00">de_funk.api.handlers.pivot</text>
</g>
<!-- de_funk.api.handlers&#45;&gt;de_funk.api.handlers.pivot -->
<g id="edge8" class="edge">
<title>de_funk.api.handlers&#45;&gt;de_funk.api.handlers.pivot</title>
<path fill="none" stroke="black" d="M2483.83,-149.73C2296.81,-170.84 1819.6,-224.71 1605.24,-248.91"/>
<polygon fill="black" stroke="black" points="1595.51,-250.01 1604.94,-244.41 1599.27,-249.58 1605.45,-248.89 1605.45,-248.89 1605.45,-248.89 1599.27,-249.58 1605.95,-253.36 1595.51,-250.01"/>
</g>
<!-- de_funk.api.handlers.table_data -->
<g id="node12" class="node">
<title>de_funk.api.handlers.table_data</title>
<polygon fill="none" stroke="black" points="3301.51,-280 3074.76,-280 3074.76,-244 3301.51,-244 3301.51,-280"/>
<text text-anchor="middle" x="3188.14" y="-257.9" font-family="Times,serif" font-size="13.00">de_funk.api.handlers.table_data</text>
</g>
<!-- de_funk.api.handlers&#45;&gt;de_funk.api.handlers.table_data -->
<g id="edge9" class="edge">
<title>de_funk.api.handlers&#45;&gt;de_funk.api.handlers.table_data</title>
<path fill="none" stroke="black" d="M2638.33,-155.77C2751,-177.34 2960.68,-217.47 3086,-241.45"/>
<polygon fill="black" stroke="black" points="3095.55,-243.28 3084.88,-245.82 3091.83,-242.57 3085.72,-241.4 3085.72,-241.4 3085.72,-241.4 3091.83,-242.57 3086.57,-236.98 3095.55,-243.28"/>
</g>
<!-- de_funk.api.handlers.box&#45;&gt;de_funk.api.executor -->
<g id="edge10" class="edge">
<title>de_funk.api.handlers.box&#45;&gt;de_funk.api.executor</title>
<path fill="none" stroke="black" d="M2716.16,-280.45C2747.18,-301.25 2799.16,-336.09 2833.8,-359.31"/>
<polygon fill="black" stroke="black" points="2842.06,-364.85 2831.25,-363.02 2838.92,-362.75 2833.76,-359.28 2833.76,-359.28 2833.76,-359.28 2838.92,-362.75 2836.26,-355.55 2842.06,-364.85"/>
</g>
<!-- de_funk.api.handlers.box&#45;&gt;de_funk.api.handlers.base -->
<g id="edge11" class="edge">
<title>de_funk.api.handlers.box&#45;&gt;de_funk.api.handlers.base</title>
<path fill="none" stroke="black" d="M2614.23,-280.45C2518.74,-302.4 2355.15,-340.01 2254.84,-363.07"/>
<polygon fill="black" stroke="black" points="2245.32,-365.26 2254.05,-358.63 2249,-364.41 2255.06,-363.02 2255.06,-363.02 2255.06,-363.02 2249,-364.41 2256.07,-367.4 2245.32,-365.26"/>
</g>
<!-- de_funk.api.models.requests -->
<g id="node15" class="node">
<title>de_funk.api.models.requests</title>
<polygon fill="none" stroke="black" points="1163.26,-524 959.01,-524 959.01,-488 1163.26,-488 1163.26,-524"/>
<text text-anchor="middle" x="1061.14" y="-501.9" font-family="Times,serif" font-size="13.00">de_funk.api.models.requests</text>
</g>
<!-- de_funk.api.handlers.box&#45;&gt;de_funk.api.models.requests -->
<g id="edge12" class="edge">
<title>de_funk.api.handlers.box&#45;&gt;de_funk.api.models.requests</title>
<path fill="none" stroke="black" d="M2658.73,-280.39C2601.67,-311.04 2476.28,-374.08 2362.14,-402 2138.28,-456.76 1448.66,-489.53 1174.87,-500.68"/>
<polygon fill="black" stroke="black" points="1164.94,-501.08 1174.75,-496.18 1168.72,-500.93 1174.93,-500.68 1174.93,-500.68 1174.93,-500.68 1168.72,-500.93 1175.12,-505.18 1164.94,-501.08"/>
</g>
<!-- de_funk.api.handlers.box&#45;&gt;de_funk.api.resolver -->
<g id="edge13" class="edge">
<title>de_funk.api.handlers.box&#45;&gt;de_funk.api.resolver</title>
<path fill="none" stroke="black" d="M2781.41,-269.34C2847.17,-279.24 2931.69,-304.1 2975.14,-366 2998.54,-399.35 2981.39,-448.07 2966.51,-478.08"/>
<polygon fill="black" stroke="black" points="2961.97,-486.79 2962.6,-475.84 2963.72,-483.43 2966.59,-477.92 2966.59,-477.92 2966.59,-477.92 2963.72,-483.43 2970.58,-480 2961.97,-486.79"/>
</g>
<!-- de_funk.api.handlers.formatting -->
<g id="node6" class="node">
<title>de_funk.api.handlers.formatting</title>
<polygon fill="none" stroke="black" points="2281.89,-524 2054.39,-524 2054.39,-488 2281.89,-488 2281.89,-524"/>
<text text-anchor="middle" x="2168.14" y="-501.9" font-family="Times,serif" font-size="13.00">de_funk.api.handlers.formatting</text>
</g>
<!-- de_funk.api.handlers.graphical&#45;&gt;de_funk.api.executor -->
<g id="edge14" class="edge">
<title>de_funk.api.handlers.graphical&#45;&gt;de_funk.api.executor</title>
<path fill="none" stroke="black" d="M2494.82,-280.45C2574.38,-302.24 2710.27,-339.47 2794.59,-362.58"/>
<polygon fill="black" stroke="black" points="2804.19,-365.21 2793.36,-366.91 2800.55,-364.21 2794.55,-362.57 2794.55,-362.57 2794.55,-362.57 2800.55,-364.21 2795.74,-358.23 2804.19,-365.21"/>
</g>
<!-- de_funk.api.handlers.graphical&#45;&gt;de_funk.api.handlers.base -->
<g id="edge15" class="edge">
<title>de_funk.api.handlers.graphical&#45;&gt;de_funk.api.handlers.base</title>
<path fill="none" stroke="black" d="M2392.89,-280.45C2346.24,-301.73 2267.34,-337.74 2216.51,-360.93"/>
<polygon fill="black" stroke="black" points="2207.53,-365.02 2214.76,-356.78 2210.97,-363.45 2216.63,-360.87 2216.63,-360.87 2216.63,-360.87 2210.97,-363.45 2218.5,-364.97 2207.53,-365.02"/>
</g>
<!-- de_funk.api.handlers.graphical&#45;&gt;de_funk.api.handlers.formatting -->
<g id="edge16" class="edge">
<title>de_funk.api.handlers.graphical&#45;&gt;de_funk.api.handlers.formatting</title>
<path fill="none" stroke="black" d="M2431.09,-280.08C2430.13,-308.61 2424.28,-366.33 2394.14,-402 2359.2,-443.33 2304.2,-468.9 2257.21,-484.22"/>
<polygon fill="black" stroke="black" points="2247.85,-487.15 2256.05,-479.86 2251.46,-486.02 2257.39,-484.16 2257.39,-484.16 2257.39,-484.16 2251.46,-486.02 2258.74,-488.45 2247.85,-487.15"/>
</g>
<!-- de_funk.api.handlers.graphical&#45;&gt;de_funk.api.models.requests -->
<g id="edge17" class="edge">
<title>de_funk.api.handlers.graphical&#45;&gt;de_funk.api.models.requests</title>
<path fill="none" stroke="black" d="M2420.13,-280.03C2399.23,-310.7 2350.53,-374.57 2291.14,-402 2094.31,-492.91 1440.2,-504.45 1174.65,-505.3"/>
<polygon fill="black" stroke="black" points="1164.67,-505.33 1174.65,-500.8 1168.45,-505.32 1174.67,-505.3 1174.67,-505.3 1174.67,-505.3 1168.45,-505.32 1174.68,-509.8 1164.67,-505.33"/>
</g>
<!-- de_funk.api.handlers.graphical&#45;&gt;de_funk.api.resolver -->
<g id="edge18" class="edge">
<title>de_funk.api.handlers.graphical&#45;&gt;de_funk.api.resolver</title>
<path fill="none" stroke="black" d="M2468.53,-280.4C2561.18,-323.52 2801.23,-435.24 2903.67,-482.91"/>
<polygon fill="black" stroke="black" points="2912.62,-487.08 2901.66,-486.94 2909.2,-485.48 2903.56,-482.86 2903.56,-482.86 2903.56,-482.86 2909.2,-485.48 2905.46,-478.78 2912.62,-487.08"/>
</g>
<!-- de_funk.api.handlers.gt_formatter -->
<g id="node8" class="node">
<title>de_funk.api.handlers.gt_formatter</title>
<polygon fill="none" stroke="black" points="1326.26,-402 1086.01,-402 1086.01,-366 1326.26,-366 1326.26,-402"/>
<text text-anchor="middle" x="1206.14" y="-379.9" font-family="Times,serif" font-size="13.00">de_funk.api.handlers.gt_formatter</text>
</g>
<!-- de_funk.api.handlers.gt_formatter&#45;&gt;de_funk.api.handlers.formatting -->
<g id="edge19" class="edge">
<title>de_funk.api.handlers.gt_formatter&#45;&gt;de_funk.api.handlers.formatting</title>
<path fill="none" stroke="black" d="M1326.51,-400.02C1509.78,-422.88 1857.05,-466.2 2043.07,-489.4"/>
<polygon fill="black" stroke="black" points="2052.78,-490.61 2042.3,-493.84 2049.03,-490.14 2042.86,-489.37 2042.86,-489.37 2042.86,-489.37 2049.03,-490.14 2043.42,-484.91 2052.78,-490.61"/>
</g>
<!-- de_funk.api.handlers.gt_formatter&#45;&gt;de_funk.api.models.requests -->
<g id="edge20" class="edge">
<title>de_funk.api.handlers.gt_formatter&#45;&gt;de_funk.api.models.requests</title>
<path fill="none" stroke="black" d="M1185.05,-402.45C1160.24,-422.98 1118.89,-457.2 1090.85,-480.41"/>
<polygon fill="black" stroke="black" points="1083.18,-486.75 1088.02,-476.91 1086.1,-484.34 1090.89,-480.38 1090.89,-480.38 1090.89,-480.38 1086.1,-484.34 1093.76,-483.84 1083.18,-486.75"/>
</g>
<!-- de_funk.api.handlers.metrics&#45;&gt;de_funk.api.executor -->
<g id="edge21" class="edge">
<title>de_funk.api.handlers.metrics&#45;&gt;de_funk.api.executor</title>
<path fill="none" stroke="black" d="M2090.46,-277.18C2265.89,-301.02 2616.85,-348.71 2780.86,-371"/>
<polygon fill="black" stroke="black" points="2790.66,-372.33 2780.14,-375.45 2786.91,-371.83 2780.75,-370.99 2780.75,-370.99 2780.75,-370.99 2786.91,-371.83 2781.35,-366.53 2790.66,-372.33"/>
</g>
<!-- de_funk.api.handlers.metrics&#45;&gt;de_funk.api.handlers.base -->
<g id="edge22" class="edge">
<title>de_funk.api.handlers.metrics&#45;&gt;de_funk.api.handlers.base</title>
<path fill="none" stroke="black" d="M2012.6,-280.45C2044.27,-301.33 2097.44,-336.39 2132.66,-359.61"/>
<polygon fill="black" stroke="black" points="2140.62,-364.86 2129.8,-363.11 2137.46,-362.78 2132.27,-359.35 2132.27,-359.35 2132.27,-359.35 2137.46,-362.78 2134.75,-355.6 2140.62,-364.86"/>
</g>
<!-- de_funk.api.handlers.metrics&#45;&gt;de_funk.api.handlers.formatting -->
<g id="edge23" class="edge">
<title>de_funk.api.handlers.metrics&#45;&gt;de_funk.api.handlers.formatting</title>
<path fill="none" stroke="black" d="M1972.01,-280.06C1951.06,-307.56 1916.8,-362.62 1942.14,-402 1969.35,-444.31 2018.69,-469.45 2064.35,-484.28"/>
<polygon fill="black" stroke="black" points="2073.77,-487.2 2062.89,-488.54 2070.16,-486.08 2064.22,-484.24 2064.22,-484.24 2064.22,-484.24 2070.16,-486.08 2065.55,-479.94 2073.77,-487.2"/>
</g>
<!-- de_funk.api.measures -->
<g id="node14" class="node">
<title>de_funk.api.measures</title>
<polygon fill="none" stroke="black" points="1661.76,-402 1502.51,-402 1502.51,-366 1661.76,-366 1661.76,-402"/>
<text text-anchor="middle" x="1582.14" y="-379.9" font-family="Times,serif" font-size="13.00">de_funk.api.measures</text>
</g>
<!-- de_funk.api.handlers.metrics&#45;&gt;de_funk.api.measures -->
<g id="edge24" class="edge">
<title>de_funk.api.handlers.metrics&#45;&gt;de_funk.api.measures</title>
<path fill="none" stroke="black" d="M1927.39,-280.45C1854.24,-302.18 1729.44,-339.25 1651.61,-362.36"/>
<polygon fill="black" stroke="black" points="1642.12,-365.18 1650.42,-358.02 1645.74,-364.11 1651.71,-362.34 1651.71,-362.34 1651.71,-362.34 1645.74,-364.11 1652.99,-366.65 1642.12,-365.18"/>
</g>
<!-- de_funk.api.handlers.metrics&#45;&gt;de_funk.api.models.requests -->
<g id="edge25" class="edge">
<title>de_funk.api.handlers.metrics&#45;&gt;de_funk.api.models.requests</title>
<path fill="none" stroke="black" d="M1956.68,-280.29C1904.82,-309.94 1793.05,-370.34 1691.14,-402 1515.28,-456.63 1302.3,-483.73 1174.48,-496.03"/>
<polygon fill="black" stroke="black" points="1164.73,-496.95 1174.26,-491.53 1168.5,-496.6 1174.69,-496.01 1174.69,-496.01 1174.69,-496.01 1168.5,-496.6 1175.11,-500.49 1164.73,-496.95"/>
</g>
<!-- de_funk.api.handlers.metrics&#45;&gt;de_funk.api.resolver -->
<g id="edge26" class="edge">
<title>de_funk.api.handlers.metrics&#45;&gt;de_funk.api.resolver</title>
<path fill="none" stroke="black" d="M1987.98,-280.49C1992.19,-310.72 2005.43,-372.36 2045.14,-402 2173.29,-497.68 2663.55,-506.49 2864.47,-505.95"/>
<polygon fill="black" stroke="black" points="2874.33,-505.92 2864.35,-510.45 2870.55,-505.93 2864.33,-505.95 2864.33,-505.95 2864.33,-505.95 2870.55,-505.93 2864.32,-501.45 2874.33,-505.92"/>
</g>
<!-- de_funk.api.handlers.pivot&#45;&gt;de_funk.api.executor -->
<g id="edge27" class="edge">
<title>de_funk.api.handlers.pivot&#45;&gt;de_funk.api.executor</title>
<path fill="none" stroke="black" d="M1594.27,-271.41C1848.55,-293.67 2536.08,-353.85 2781,-375.29"/>
<polygon fill="black" stroke="black" points="2790.77,-376.14 2780.41,-379.75 2787,-375.81 2780.8,-375.27 2780.8,-375.27 2780.8,-375.27 2787,-375.81 2781.2,-370.79 2790.77,-376.14"/>
</g>
<!-- de_funk.api.handlers.pivot&#45;&gt;de_funk.api.handlers.base -->
<g id="edge28" class="edge">
<title>de_funk.api.handlers.pivot&#45;&gt;de_funk.api.handlers.base</title>
<path fill="none" stroke="black" d="M1594.13,-280.19C1718.24,-302.42 1933.68,-341.01 2062.37,-364.06"/>
<polygon fill="black" stroke="black" points="2072.2,-365.82 2061.56,-368.48 2068.48,-365.15 2062.36,-364.05 2062.36,-364.05 2062.36,-364.05 2068.48,-365.15 2063.15,-359.63 2072.2,-365.82"/>
</g>
<!-- de_funk.api.handlers.pivot&#45;&gt;de_funk.api.handlers.gt_formatter -->
<g id="edge29" class="edge">
<title>de_funk.api.handlers.pivot&#45;&gt;de_funk.api.handlers.gt_formatter</title>
<path fill="none" stroke="black" d="M1455.68,-280.45C1403.56,-301.87 1315.17,-338.19 1258.79,-361.36"/>
<polygon fill="black" stroke="black" points="1249.77,-365.07 1257.31,-357.1 1253.27,-363.63 1259.02,-361.27 1259.02,-361.27 1259.02,-361.27 1253.27,-363.63 1260.73,-365.43 1249.77,-365.07"/>
</g>
<!-- de_funk.api.handlers.reshape -->
<g id="node11" class="node">
<title>de_funk.api.handlers.reshape</title>
<polygon fill="none" stroke="black" points="495.26,-402 285.01,-402 285.01,-366 495.26,-366 495.26,-402"/>
<text text-anchor="middle" x="390.14" y="-379.9" font-family="Times,serif" font-size="13.00">de_funk.api.handlers.reshape</text>
</g>
<!-- de_funk.api.handlers.pivot&#45;&gt;de_funk.api.handlers.reshape -->
<g id="edge30" class="edge">
<title>de_funk.api.handlers.pivot&#45;&gt;de_funk.api.handlers.reshape</title>
<path fill="none" stroke="black" d="M1401.98,-272.5C1227.13,-289.92 845.47,-328.63 524.14,-366 518.31,-366.68 512.35,-367.38 506.33,-368.11"/>
<polygon fill="black" stroke="black" points="496.65,-369.28 506.04,-363.61 500.41,-368.83 506.58,-368.08 506.58,-368.08 506.58,-368.08 500.41,-368.83 507.12,-372.55 496.65,-369.28"/>
</g>
<!-- de_funk.api.handlers.pivot&#45;&gt;de_funk.api.measures -->
<g id="edge31" class="edge">
<title>de_funk.api.handlers.pivot&#45;&gt;de_funk.api.measures</title>
<path fill="none" stroke="black" d="M1510.35,-280.45C1524.35,-300.45 1547.44,-333.43 1563.64,-356.58"/>
<polygon fill="black" stroke="black" points="1569.21,-364.53 1559.79,-358.92 1567.04,-361.43 1563.47,-356.34 1563.47,-356.34 1563.47,-356.34 1567.04,-361.43 1567.16,-353.76 1569.21,-364.53"/>
</g>
<!-- de_funk.api.handlers.pivot&#45;&gt;de_funk.api.models.requests -->
<g id="edge32" class="edge">
<title>de_funk.api.handlers.pivot&#45;&gt;de_funk.api.models.requests</title>
<path fill="none" stroke="black" d="M1401.94,-262.23C1087.25,-260.72 103.12,-264.23 8.14,-366 -2.78,-377.7 -2.61,-390.15 8.14,-402 70.37,-470.62 688.37,-495.05 947.61,-502.33"/>
<polygon fill="black" stroke="black" points="957.34,-502.6 947.22,-506.82 953.56,-502.49 947.34,-502.32 947.34,-502.32 947.34,-502.32 953.56,-502.49 947.47,-497.82 957.34,-502.6"/>
</g>
<!-- de_funk.api.handlers.pivot&#45;&gt;de_funk.api.resolver -->
<g id="edge33" class="edge">
<title>de_funk.api.handlers.pivot&#45;&gt;de_funk.api.resolver</title>
<path fill="none" stroke="black" d="M1487.13,-280.08C1469.91,-309.13 1441.69,-368.29 1473.14,-402 1520.85,-453.15 2554.94,-491.75 2864.4,-502.19"/>
<polygon fill="black" stroke="black" points="2874.32,-502.52 2864.18,-506.69 2870.54,-502.4 2864.33,-502.19 2864.33,-502.19 2864.33,-502.19 2870.54,-502.4 2864.48,-497.69 2874.32,-502.52"/>
</g>
<!-- de_funk.api.handlers.reshape&#45;&gt;de_funk.api.models.requests -->
<g id="edge34" class="edge">
<title>de_funk.api.handlers.reshape&#45;&gt;de_funk.api.models.requests</title>
<path fill="none" stroke="black" d="M487.7,-402.45C611.32,-424.56 823.72,-462.54 952.41,-485.56"/>
<polygon fill="black" stroke="black" points="962.25,-487.32 951.61,-489.98 958.53,-486.65 952.4,-485.55 952.4,-485.55 952.4,-485.55 958.53,-486.65 953.2,-481.13 962.25,-487.32"/>
</g>
<!-- de_funk.api.handlers.table_data&#45;&gt;de_funk.api.executor -->
<g id="edge35" class="edge">
<title>de_funk.api.handlers.table_data&#45;&gt;de_funk.api.executor</title>
<path fill="none" stroke="black" d="M3141.75,-280.45C3084.58,-301.96 2987.46,-338.49 2925.89,-361.65"/>
<polygon fill="black" stroke="black" points="2916.72,-365.1 2924.49,-357.37 2920.26,-363.77 2926.08,-361.58 2926.08,-361.58 2926.08,-361.58 2920.26,-363.77 2927.66,-365.79 2916.72,-365.1"/>
</g>
<!-- de_funk.api.handlers.table_data&#45;&gt;de_funk.api.handlers.base -->
<g id="edge36" class="edge">
<title>de_funk.api.handlers.table_data&#45;&gt;de_funk.api.handlers.base</title>
<path fill="none" stroke="black" d="M3074.59,-276.36C2875.67,-299.76 2467.01,-347.84 2273.79,-370.57"/>
<polygon fill="black" stroke="black" points="2264,-371.72 2273.4,-366.08 2267.75,-371.28 2273.93,-370.55 2273.93,-370.55 2273.93,-370.55 2267.75,-371.28 2274.46,-375.02 2264,-371.72"/>
</g>
<!-- de_funk.api.handlers.table_data&#45;&gt;de_funk.api.handlers.formatting -->
<g id="edge37" class="edge">
<title>de_funk.api.handlers.table_data&#45;&gt;de_funk.api.handlers.formatting</title>
<path fill="none" stroke="black" d="M3195.98,-280.08C3208.02,-309.13 3226.62,-368.3 3196.14,-402 3136.56,-467.85 2554.01,-493.46 2293.23,-501.68"/>
<polygon fill="black" stroke="black" points="2283.42,-501.98 2293.27,-497.17 2287.2,-501.86 2293.41,-501.67 2293.41,-501.67 2293.41,-501.67 2287.2,-501.86 2293.55,-506.17 2283.42,-501.98"/>
</g>
<!-- de_funk.api.handlers.table_data&#45;&gt;de_funk.api.models.requests -->
<g id="edge38" class="edge">
<title>de_funk.api.handlers.table_data&#45;&gt;de_funk.api.models.requests</title>
<path fill="none" stroke="black" d="M3169.42,-280.26C3134.41,-311.32 3055.3,-375.79 2975.14,-402 2804.44,-457.81 1560.64,-492.74 1174.9,-502.31"/>
<polygon fill="black" stroke="black" points="1164.96,-502.56 1174.84,-497.81 1168.74,-502.47 1174.95,-502.31 1174.95,-502.31 1174.95,-502.31 1168.74,-502.47 1175.06,-506.81 1164.96,-502.56"/>
</g>
<!-- de_funk.api.handlers.table_data&#45;&gt;de_funk.api.resolver -->
<g id="edge39" class="edge">
<title>de_funk.api.handlers.table_data&#45;&gt;de_funk.api.resolver</title>
<path fill="none" stroke="black" d="M3224.61,-280.32C3273.26,-305.79 3349.38,-355.36 3314.14,-402 3280.81,-446.1 3133.7,-476.81 3037.28,-492.63"/>
<polygon fill="black" stroke="black" points="3027.57,-494.2 3036.73,-488.16 3031.31,-493.59 3037.45,-492.6 3037.45,-492.6 3037.45,-492.6 3031.31,-493.59 3038.16,-497.04 3027.57,-494.2"/>
</g>
<!-- de_funk.api.main -->
<g id="node13" class="node">
<title>de_funk.api.main</title>
<polygon fill="none" stroke="black" points="3570.76,-36 3441.51,-36 3441.51,0 3570.76,0 3570.76,-36"/>
<text text-anchor="middle" x="3506.14" y="-13.9" font-family="Times,serif" font-size="13.00">de_funk.api.main</text>
</g>
<!-- de_funk.api.main&#45;&gt;de_funk.api.bronze_resolver -->
<g id="edge40" class="edge">
<title>de_funk.api.main&#45;&gt;de_funk.api.bronze_resolver</title>
<path fill="none" stroke="black" d="M3533.62,-36.45C3566.51,-57.33 3621.72,-92.39 3658.29,-115.61"/>
<polygon fill="black" stroke="black" points="3666.59,-120.88 3655.74,-119.32 3663.4,-118.85 3658.15,-115.52 3658.15,-115.52 3658.15,-115.52 3663.4,-118.85 3660.56,-111.72 3666.59,-120.88"/>
</g>
<!-- de_funk.api.main&#45;&gt;de_funk.api.executor -->
<g id="edge41" class="edge">
<title>de_funk.api.main&#45;&gt;de_funk.api.executor</title>
<path fill="none" stroke="black" d="M3463,-36.47C3379.61,-71.02 3191.67,-152.69 3046.14,-244 2989.93,-279.26 2930.4,-328.91 2896.69,-358.34"/>
<polygon fill="black" stroke="black" points="2889.21,-364.92 2893.75,-354.93 2892.05,-362.42 2896.72,-358.31 2896.72,-358.31 2896.72,-358.31 2892.05,-362.42 2899.7,-361.69 2889.21,-364.92"/>
</g>
<!-- de_funk.api.main&#45;&gt;de_funk.api.handlers -->
<g id="edge42" class="edge">
<title>de_funk.api.main&#45;&gt;de_funk.api.handlers</title>
<path fill="none" stroke="black" d="M3441.18,-27.25C3275.7,-48.26 2838.05,-103.84 2649.55,-127.77"/>
<polygon fill="black" stroke="black" points="2639.79,-129.01 2649.15,-123.29 2643.55,-128.54 2649.71,-127.75 2649.71,-127.75 2649.71,-127.75 2643.55,-128.54 2650.28,-132.22 2639.79,-129.01"/>
</g>
<!-- de_funk.api.main&#45;&gt;de_funk.api.resolver -->
<g id="edge43" class="edge">
<title>de_funk.api.main&#45;&gt;de_funk.api.resolver</title>
<path fill="none" stroke="black" d="M3505.16,-36.23C3500.77,-96.48 3477.72,-299.62 3363.14,-402 3315.54,-444.52 3143.9,-476.64 3037.75,-492.97"/>
<polygon fill="black" stroke="black" points="3027.94,-494.47 3037.15,-488.51 3031.68,-493.9 3037.83,-492.96 3037.83,-492.96 3037.83,-492.96 3031.68,-493.9 3038.51,-497.41 3027.94,-494.47"/>
</g>
<!-- de_funk.api.routers -->
<g id="node17" class="node">
<title>de_funk.api.routers</title>
<polygon fill="none" stroke="black" points="3998.26,-158 3854.01,-158 3854.01,-122 3998.26,-122 3998.26,-158"/>
<text text-anchor="middle" x="3926.14" y="-135.9" font-family="Times,serif" font-size="13.00">de_funk.api.routers</text>
</g>
<!-- de_funk.api.main&#45;&gt;de_funk.api.routers -->
<g id="edge44" class="edge">
<title>de_funk.api.main&#45;&gt;de_funk.api.routers</title>
<path fill="none" stroke="black" d="M3567.21,-36.45C3643.41,-58.22 3773.53,-95.4 3854.4,-118.51"/>
<polygon fill="black" stroke="black" points="3863.82,-121.2 3852.97,-122.77 3860.18,-120.16 3854.2,-118.45 3854.2,-118.45 3854.2,-118.45 3860.18,-120.16 3855.44,-114.12 3863.82,-121.2"/>
</g>
<!-- de_funk.api.routers.bronze -->
<g id="node18" class="node">
<title>de_funk.api.routers.bronze</title>
<polygon fill="none" stroke="black" points="746.64,-402 553.64,-402 553.64,-366 746.64,-366 746.64,-402"/>
<text text-anchor="middle" x="650.14" y="-379.9" font-family="Times,serif" font-size="13.00">de_funk.api.routers.bronze</text>
</g>
<!-- de_funk.api.routers.bronze&#45;&gt;de_funk.api.models.requests -->
<g id="edge45" class="edge">
<title>de_funk.api.routers.bronze&#45;&gt;de_funk.api.models.requests</title>
<path fill="none" stroke="black" d="M709.9,-402.45C784.47,-424.22 911.8,-461.4 990.94,-484.51"/>
<polygon fill="black" stroke="black" points="1000.13,-487.19 989.27,-488.71 996.5,-486.13 990.53,-484.39 990.53,-484.39 990.53,-484.39 996.5,-486.13 991.79,-480.07 1000.13,-487.19"/>
</g>
<!-- de_funk.api.routers.dimensions -->
<g id="node19" class="node">
<title>de_funk.api.routers.dimensions</title>
<polygon fill="none" stroke="black" points="1027.64,-402 804.64,-402 804.64,-366 1027.64,-366 1027.64,-402"/>
<text text-anchor="middle" x="916.14" y="-379.9" font-family="Times,serif" font-size="13.00">de_funk.api.routers.dimensions</text>
</g>
<!-- de_funk.api.routers.dimensions&#45;&gt;de_funk.api.models.requests -->
<g id="edge46" class="edge">
<title>de_funk.api.routers.dimensions&#45;&gt;de_funk.api.models.requests</title>
<path fill="none" stroke="black" d="M937.22,-402.45C962.03,-422.98 1003.38,-457.2 1031.42,-480.41"/>
<polygon fill="black" stroke="black" points="1039.09,-486.75 1028.51,-483.84 1036.17,-484.34 1031.38,-480.38 1031.38,-480.38 1031.38,-480.38 1036.17,-484.34 1034.25,-476.91 1039.09,-486.75"/>
</g>
<!-- de_funk.api.routers.health -->
<g id="node20" class="node">
<title>de_funk.api.routers.health</title>
<polygon fill="none" stroke="black" points="227.14,-402 37.14,-402 37.14,-366 227.14,-366 227.14,-402"/>
<text text-anchor="middle" x="132.14" y="-379.9" font-family="Times,serif" font-size="13.00">de_funk.api.routers.health</text>
</g>
<!-- de_funk.api.routers.health&#45;&gt;de_funk.api.models.requests -->
<g id="edge47" class="edge">
<title>de_funk.api.routers.health&#45;&gt;de_funk.api.models.requests</title>
<path fill="none" stroke="black" d="M227.58,-398.17C237.22,-399.48 246.87,-400.77 256.14,-402 502.68,-434.67 791.95,-471.26 947.81,-490.83"/>
<polygon fill="black" stroke="black" points="957.59,-492.05 947.11,-495.27 953.84,-491.58 947.67,-490.81 947.67,-490.81 947.67,-490.81 953.84,-491.58 948.23,-486.34 957.59,-492.05"/>
</g>
</g>
</svg>
