<?xml version="1.0" encoding="UTF-8" standalone="no"?>
<!DOCTYPE svg PUBLIC "-//W3C//DTD SVG 1.1//EN"
 "http://www.w3.org/Graphics/SVG/1.1/DTD/svg11.dtd">
<!-- Generated by graphviz version 12.2.1 (0)
 -->
<!-- Title: packages_config Pages: 1 -->
<svg width="2656pt" height="547pt"
 viewBox="0.00 0.00 1992.12 410.00" xmlns="http://www.w3.org/2000/svg" xmlns:xlink="http://www.w3.org/1999/xlink">
<g id="graph0" class="graph" transform="scale(1.33333 1.33333) rotate(0) translate(4 406)">
<title>packages_config</title>
<polygon fill="white" stroke="none" points="-4,4 -4,-406 1988.12,-406 1988.12,4 -4,4"/>
<!-- de_funk.config -->
<g id="node1" class="node">
<title>de_funk.config</title>
<polygon fill="none" stroke="black" points="786.5,-36 673.75,-36 673.75,0 786.5,0 786.5,-36"/>
<text text-anchor="middle" x="730.12" y="-13.9" font-family="Times,serif" font-size="13.00">de_funk.config</text>
</g>
<!-- de_funk.config.loader -->
<g id="node10" class="node">
<title>de_funk.config.loader</title>
<polygon fill="none" stroke="black" points="552.38,-158 393.88,-158 393.88,-122 552.38,-122 552.38,-158"/>
<text text-anchor="middle" x="473.12" y="-135.9" font-family="Times,serif" font-size="13.00">de_funk.config.loader</text>
</g>
<!-- de_funk.config&#45;&gt;de_funk.config.loader -->
<g id="edge1" class="edge">
<title>de_funk.config&#45;&gt;de_funk.config.loader</title>
<path fill="none" stroke="black" d="M692.75,-36.45C647.17,-57.73 570.06,-93.74 520.4,-116.93"/>
<polygon fill="black" stroke="black" points="511.64,-121.01 518.8,-112.71 515.07,-119.41 520.71,-116.78 520.71,-116.78 520.71,-116.78 515.07,-119.41 522.61,-120.86 511.64,-121.01"/>
</g>
<!-- de_funk.config.logging -->
<g id="node11" class="node">
<title>de_funk.config.logging</title>
<polygon fill="none" stroke="black" points="556.5,-402 389.75,-402 389.75,-366 556.5,-366 556.5,-402"/>
<text text-anchor="middle" x="473.12" y="-379.9" font-family="Times,serif" font-size="13.00">de_funk.config.logging</text>
</g>
<!-- de_funk.config&#45;&gt;de_funk.config.logging -->
<g id="edge2" class="edge">
<title>de_funk.config&#45;&gt;de_funk.config.logging</title>
<path fill="none" stroke="black" d="M748.85,-36.37C794.25,-80.59 902.13,-199.58 841.12,-280 808.13,-323.5 665.46,-353.64 567.77,-369.62"/>
<polygon fill="black" stroke="black" points="558.19,-371.16 567.34,-365.13 561.92,-370.56 568.06,-369.57 568.06,-369.57 568.06,-369.57 561.92,-370.56 568.78,-374.01 558.19,-371.16"/>
</g>
<!-- de_funk.config.models -->
<g id="node13" class="node">
<title>de_funk.config.models</title>
<polygon fill="none" stroke="black" points="812,-280 648.25,-280 648.25,-244 812,-244 812,-280"/>
<text text-anchor="middle" x="730.12" y="-257.9" font-family="Times,serif" font-size="13.00">de_funk.config.models</text>
</g>
<!-- de_funk.config&#45;&gt;de_funk.config.models -->
<g id="edge3" class="edge">
<title>de_funk.config&#45;&gt;de_funk.config.models</title>
<path fill="none" stroke="black" d="M730.12,-36.4C730.12,-77.74 730.12,-182.13 730.12,-232.69"/>
<polygon fill="black" stroke="black" points="730.13,-242.54 725.63,-232.54 730.13,-238.75 730.13,-232.54 730.13,-232.54 730.13,-232.54 730.13,-238.75 734.63,-232.54 730.13,-242.54"/>
</g>
<!-- de_funk.config.constants -->
<g id="node2" class="node">
<title>de_funk.config.constants</title>
<polygon fill="none" stroke="black" points="180.25,-280 0,-280 0,-244 180.25,-244 180.25,-280"/>
<text text-anchor="middle" x="90.12" y="-257.9" font-family="Times,serif" font-size="13.00">de_funk.config.constants</text>
</g>
<!-- de_funk.config.domain -->
<g id="node3" class="node">
<title>de_funk.config.domain</title>
<polygon fill="none" stroke="black" points="1298.75,-36 1133.5,-36 1133.5,0 1298.75,0 1298.75,-36"/>
<text text-anchor="middle" x="1216.12" y="-13.9" font-family="Times,serif" font-size="13.00">de_funk.config.domain</text>
</g>
<!-- de_funk.config.domain.extends -->
<g id="node6" class="node">
<title>de_funk.config.domain.extends</title>
<polygon fill="none" stroke="black" points="1218.5,-280 997.75,-280 997.75,-244 1218.5,-244 1218.5,-280"/>
<text text-anchor="middle" x="1108.12" y="-257.9" font-family="Times,serif" font-size="13.00">de_funk.config.domain.extends</text>
</g>
<!-- de_funk.config.domain&#45;&gt;de_funk.config.domain.extends -->
<g id="edge4" class="edge">
<title>de_funk.config.domain&#45;&gt;de_funk.config.domain.extends</title>
<path fill="none" stroke="black" d="M1175.12,-36.49C1141.92,-53.13 1097.46,-81.63 1077.12,-122 1058.9,-158.19 1076.71,-205 1091.89,-234.01"/>
<polygon fill="black" stroke="black" points="1096.71,-242.77 1087.95,-236.18 1094.88,-239.46 1091.89,-234.01 1091.89,-234.01 1091.89,-234.01 1094.88,-239.46 1095.83,-231.84 1096.71,-242.77"/>
</g>
<!-- de_funk.config.domain.schema -->
<g id="node7" class="node">
<title>de_funk.config.domain.schema</title>
<polygon fill="none" stroke="black" points="1514.75,-280 1295.5,-280 1295.5,-244 1514.75,-244 1514.75,-280"/>
<text text-anchor="middle" x="1405.12" y="-257.9" font-family="Times,serif" font-size="13.00">de_funk.config.domain.schema</text>
</g>
<!-- de_funk.config.domain&#45;&gt;de_funk.config.domain.schema -->
<g id="edge5" class="edge">
<title>de_funk.config.domain&#45;&gt;de_funk.config.domain.schema</title>
<path fill="none" stroke="black" d="M1250.09,-36.49C1281.38,-54.18 1327.08,-84.27 1355.12,-122 1380.11,-155.62 1393.57,-202.91 1400.03,-232.75"/>
<polygon fill="black" stroke="black" points="1402.01,-242.45 1395.6,-233.55 1401.25,-238.74 1400.01,-232.65 1400.01,-232.65 1400.01,-232.65 1401.25,-238.74 1404.42,-231.75 1402.01,-242.45"/>
</g>
<!-- de_funk.config.domain.subsets -->
<g id="node9" class="node">
<title>de_funk.config.domain.subsets</title>
<polygon fill="none" stroke="black" points="1325.75,-158 1106.5,-158 1106.5,-122 1325.75,-122 1325.75,-158"/>
<text text-anchor="middle" x="1216.12" y="-135.9" font-family="Times,serif" font-size="13.00">de_funk.config.domain.subsets</text>
</g>
<!-- de_funk.config.domain&#45;&gt;de_funk.config.domain.subsets -->
<g id="edge6" class="edge">
<title>de_funk.config.domain&#45;&gt;de_funk.config.domain.subsets</title>
<path fill="none" stroke="black" d="M1216.12,-36.45C1216.12,-55.82 1216.12,-87.39 1216.12,-110.39"/>
<polygon fill="black" stroke="black" points="1216.13,-120.31 1211.63,-110.31 1216.13,-116.53 1216.13,-110.31 1216.13,-110.31 1216.13,-110.31 1216.13,-116.53 1220.63,-110.31 1216.13,-120.31"/>
</g>
<!-- de_funk.config.domain.build -->
<g id="node4" class="node">
<title>de_funk.config.domain.build</title>
<polygon fill="none" stroke="black" points="1705.88,-158 1502.38,-158 1502.38,-122 1705.88,-122 1705.88,-158"/>
<text text-anchor="middle" x="1604.12" y="-135.9" font-family="Times,serif" font-size="13.00">de_funk.config.domain.build</text>
</g>
<!-- de_funk.config.domain.config_translator -->
<g id="node5" class="node">
<title>de_funk.config.domain.config_translator</title>
<polygon fill="none" stroke="black" points="1879.88,-36 1598.38,-36 1598.38,0 1879.88,0 1879.88,-36"/>
<text text-anchor="middle" x="1739.12" y="-13.9" font-family="Times,serif" font-size="13.00">de_funk.config.domain.config_translator</text>
</g>
<!-- de_funk.config.domain.config_translator&#45;&gt;de_funk.config.domain.build -->
<g id="edge7" class="edge">
<title>de_funk.config.domain.config_translator&#45;&gt;de_funk.config.domain.build</title>
<path fill="none" stroke="black" d="M1719.49,-36.45C1696.5,-56.89 1658.23,-90.9 1632.13,-114.11"/>
<polygon fill="black" stroke="black" points="1624.69,-120.72 1629.17,-110.71 1627.52,-118.21 1632.16,-114.08 1632.16,-114.08 1632.16,-114.08 1627.52,-118.21 1635.15,-117.44 1624.69,-120.72"/>
</g>
<!-- de_funk.config.domain.sources -->
<g id="node8" class="node">
<title>de_funk.config.domain.sources</title>
<polygon fill="none" stroke="black" points="1984.12,-158 1764.12,-158 1764.12,-122 1984.12,-122 1984.12,-158"/>
<text text-anchor="middle" x="1874.12" y="-135.9" font-family="Times,serif" font-size="13.00">de_funk.config.domain.sources</text>
</g>
<!-- de_funk.config.domain.config_translator&#45;&gt;de_funk.config.domain.sources -->
<g id="edge8" class="edge">
<title>de_funk.config.domain.config_translator&#45;&gt;de_funk.config.domain.sources</title>
<path fill="none" stroke="black" d="M1758.76,-36.45C1781.75,-56.89 1820.02,-90.9 1846.12,-114.11"/>
<polygon fill="black" stroke="black" points="1853.56,-120.72 1843.1,-117.44 1850.73,-118.21 1846.09,-114.08 1846.09,-114.08 1846.09,-114.08 1850.73,-118.21 1849.08,-110.71 1853.56,-120.72"/>
</g>
<!-- de_funk.config.domain.subsets&#45;&gt;de_funk.config.domain.extends -->
<g id="edge9" class="edge">
<title>de_funk.config.domain.subsets&#45;&gt;de_funk.config.domain.extends</title>
<path fill="none" stroke="black" d="M1200.42,-158.45C1182.26,-178.62 1152.21,-212.02 1131.35,-235.2"/>
<polygon fill="black" stroke="black" points="1124.66,-242.62 1128.01,-232.18 1127.19,-239.81 1131.35,-235.19 1131.35,-235.19 1131.35,-235.19 1127.19,-239.81 1134.7,-238.2 1124.66,-242.62"/>
</g>
<!-- de_funk.config.domain.subsets&#45;&gt;de_funk.config.domain.schema -->
<g id="edge10" class="edge">
<title>de_funk.config.domain.subsets&#45;&gt;de_funk.config.domain.schema</title>
<path fill="none" stroke="black" d="M1243.61,-158.45C1276.5,-179.33 1331.71,-214.39 1368.28,-237.61"/>
<polygon fill="black" stroke="black" points="1376.58,-242.88 1365.73,-241.32 1373.39,-240.85 1368.14,-237.52 1368.14,-237.52 1368.14,-237.52 1373.39,-240.85 1370.55,-233.72 1376.58,-242.88"/>
</g>
<!-- de_funk.config.loader&#45;&gt;de_funk.config.constants -->
<g id="edge11" class="edge">
<title>de_funk.config.loader&#45;&gt;de_funk.config.constants</title>
<path fill="none" stroke="black" d="M417.43,-158.45C348.22,-180.13 230.25,-217.1 156.44,-240.22"/>
<polygon fill="black" stroke="black" points="147.05,-243.17 155.24,-235.88 150.65,-242.03 156.59,-240.18 156.59,-240.18 156.59,-240.18 150.65,-242.03 157.93,-244.47 147.05,-243.17"/>
</g>
<!-- de_funk.config.loader&#45;&gt;de_funk.config.logging -->
<g id="edge12" class="edge">
<title>de_funk.config.loader&#45;&gt;de_funk.config.logging</title>
<path fill="none" stroke="black" d="M428.25,-158.41C375.73,-181.67 299.26,-226.25 327.12,-280 346.4,-317.19 385.96,-343.8 419.05,-360.65"/>
<polygon fill="black" stroke="black" points="427.98,-365.03 417.02,-364.67 424.59,-363.37 419,-360.63 419,-360.63 419,-360.63 424.59,-363.37 420.98,-356.59 427.98,-365.03"/>
</g>
<!-- de_funk.config.markdown_loader -->
<g id="node12" class="node">
<title>de_funk.config.markdown_loader</title>
<polygon fill="none" stroke="black" points="590.25,-280 356,-280 356,-244 590.25,-244 590.25,-280"/>
<text text-anchor="middle" x="473.12" y="-257.9" font-family="Times,serif" font-size="13.00">de_funk.config.markdown_loader</text>
</g>
<!-- de_funk.config.loader&#45;&gt;de_funk.config.markdown_loader -->
<g id="edge13" class="edge">
<title>de_funk.config.loader&#45;&gt;de_funk.config.markdown_loader</title>
<path fill="none" stroke="black" d="M473.12,-158.45C473.12,-177.82 473.12,-209.39 473.12,-232.39"/>
<polygon fill="black" stroke="black" points="473.13,-242.31 468.63,-232.31 473.13,-238.53 473.13,-232.31 473.13,-232.31 473.13,-232.31 473.13,-238.53 477.63,-232.31 473.13,-242.31"/>
</g>
<!-- de_funk.config.loader&#45;&gt;de_funk.config.models -->
<g id="edge14" class="edge">
<title>de_funk.config.loader&#45;&gt;de_funk.config.models</title>
<path fill="none" stroke="black" d="M510.5,-158.45C556.08,-179.73 633.19,-215.74 682.85,-238.93"/>
<polygon fill="black" stroke="black" points="691.61,-243.01 680.64,-242.86 688.18,-241.41 682.54,-238.78 682.54,-238.78 682.54,-238.78 688.18,-241.41 684.45,-234.71 691.61,-243.01"/>
</g>
<!-- de_funk.config.markdown_loader&#45;&gt;de_funk.config.logging -->
<g id="edge15" class="edge">
<title>de_funk.config.markdown_loader&#45;&gt;de_funk.config.logging</title>
<path fill="none" stroke="black" d="M473.12,-280.45C473.12,-299.82 473.12,-331.39 473.12,-354.39"/>
<polygon fill="black" stroke="black" points="473.13,-364.31 468.63,-354.31 473.13,-360.53 473.13,-354.31 473.13,-354.31 473.13,-354.31 473.13,-360.53 477.63,-354.31 473.13,-364.31"/>
</g>
</g>
</svg>
