<?xml version="1.0" encoding="UTF-8" standalone="no"?>
<!DOCTYPE svg PUBLIC "-//W3C//DTD SVG 1.1//EN"
 "http://www.w3.org/Graphics/SVG/1.1/DTD/svg11.dtd">
<!-- Generated by graphviz version 12.2.1 (0)
 -->
<!-- Title: packages_pipelines Pages: 1 -->
<svg width="4312pt" height="709pt"
 viewBox="0.00 0.00 3234.31 532.00" xmlns="http://www.w3.org/2000/svg" xmlns:xlink="http://www.w3.org/1999/xlink">
<g id="graph0" class="graph" transform="scale(1.33333 1.33333) rotate(0) translate(4 528)">
<title>packages_pipelines</title>
<polygon fill="white" stroke="none" points="-4,4 -4,-528 3230.31,-528 3230.31,4 -4,4"/>
<!-- de_funk.pipelines.base -->
<g id="node1" class="node">
<title>de_funk.pipelines.base</title>
<polygon fill="none" stroke="black" points="933.93,-36 767.18,-36 767.18,0 933.93,0 933.93,-36"/>
<text text-anchor="middle" x="850.56" y="-13.9" font-family="Times,serif" font-size="13.00">de_funk.pipelines.base</text>
</g>
<!-- de_funk.pipelines.base.facet -->
<g id="node2" class="node">
<title>de_funk.pipelines.base.facet</title>
<polygon fill="none" stroke="black" points="239.31,-158 35.81,-158 35.81,-122 239.31,-122 239.31,-158"/>
<text text-anchor="middle" x="137.56" y="-135.9" font-family="Times,serif" font-size="13.00">de_funk.pipelines.base.facet</text>
</g>
<!-- de_funk.pipelines.base&#45;&gt;de_funk.pipelines.base.facet -->
<g id="edge1" class="edge">
<title>de_funk.pipelines.base&#45;&gt;de_funk.pipelines.base.facet</title>
<path fill="none" stroke="black" d="M767.02,-33.06C639.08,-54.59 394.34,-95.78 250.62,-119.97"/>
<polygon fill="black" stroke="black" points="240.8,-121.62 249.92,-115.53 244.53,-121 250.66,-119.96 250.66,-119.96 250.66,-119.96 244.53,-121 251.41,-124.4 240.8,-121.62"/>
</g>
<!-- de_funk.pipelines.base.http_client -->
<g id="node3" class="node">
<title>de_funk.pipelines.base.http_client</title>
<polygon fill="none" stroke="black" points="945.81,-402 703.31,-402 703.31,-366 945.81,-366 945.81,-402"/>
<text text-anchor="middle" x="824.56" y="-379.9" font-family="Times,serif" font-size="13.00">de_funk.pipelines.base.http_client</text>
</g>
<!-- de_funk.pipelines.base&#45;&gt;de_funk.pipelines.base.http_client -->
<g id="edge2" class="edge">
<title>de_funk.pipelines.base&#45;&gt;de_funk.pipelines.base.http_client</title>
<path fill="none" stroke="black" d="M766.76,-32.26C674.79,-48.72 535.98,-79.86 504.56,-122 462.58,-178.29 463.2,-223.25 504.56,-280 547.46,-338.88 624.6,-364.83 692.39,-375.96"/>
<polygon fill="black" stroke="black" points="701.98,-377.44 691.42,-380.36 698.25,-376.86 692.1,-375.91 692.1,-375.91 692.1,-375.91 698.25,-376.86 692.79,-371.47 701.98,-377.44"/>
</g>
<!-- de_funk.pipelines.base.ingestor_engine -->
<g id="node4" class="node">
<title>de_funk.pipelines.base.ingestor_engine</title>
<polygon fill="none" stroke="black" points="1700.68,-158 1424.43,-158 1424.43,-122 1700.68,-122 1700.68,-158"/>
<text text-anchor="middle" x="1562.56" y="-135.9" font-family="Times,serif" font-size="13.00">de_funk.pipelines.base.ingestor_engine</text>
</g>
<!-- de_funk.pipelines.base&#45;&gt;de_funk.pipelines.base.ingestor_engine -->
<g id="edge3" class="edge">
<title>de_funk.pipelines.base&#45;&gt;de_funk.pipelines.base.ingestor_engine</title>
<path fill="none" stroke="black" d="M934.33,-33.12C1061.69,-54.58 1304.37,-95.48 1447.96,-119.69"/>
<polygon fill="black" stroke="black" points="1457.78,-121.34 1447.17,-124.12 1454.05,-120.71 1447.92,-119.68 1447.92,-119.68 1447.92,-119.68 1454.05,-120.71 1448.67,-115.24 1457.78,-121.34"/>
</g>
<!-- de_funk.pipelines.base.key_pool -->
<g id="node5" class="node">
<title>de_funk.pipelines.base.key_pool</title>
<polygon fill="none" stroke="black" points="510.06,-402 281.06,-402 281.06,-366 510.06,-366 510.06,-402"/>
<text text-anchor="middle" x="395.56" y="-379.9" font-family="Times,serif" font-size="13.00">de_funk.pipelines.base.key_pool</text>
</g>
<!-- de_funk.pipelines.base&#45;&gt;de_funk.pipelines.base.key_pool -->
<g id="edge4" class="edge">
<title>de_funk.pipelines.base&#45;&gt;de_funk.pipelines.base.key_pool</title>
<path fill="none" stroke="black" d="M767.09,-31.76C668.14,-48.52 511.36,-80.71 469.56,-122 405.08,-185.7 395.72,-301.12 395.05,-354.51"/>
<polygon fill="black" stroke="black" points="395.03,-364.29 390.55,-354.28 395.04,-360.5 395.05,-354.29 395.05,-354.29 395.05,-354.29 395.04,-360.5 399.55,-354.3 395.03,-364.29"/>
</g>
<!-- de_funk.pipelines.base.metrics -->
<g id="node6" class="node">
<title>de_funk.pipelines.base.metrics</title>
<polygon fill="none" stroke="black" points="1365.93,-158 1145.18,-158 1145.18,-122 1365.93,-122 1365.93,-158"/>
<text text-anchor="middle" x="1255.56" y="-135.9" font-family="Times,serif" font-size="13.00">de_funk.pipelines.base.metrics</text>
</g>
<!-- de_funk.pipelines.base&#45;&gt;de_funk.pipelines.base.metrics -->
<g id="edge5" class="edge">
<title>de_funk.pipelines.base&#45;&gt;de_funk.pipelines.base.metrics</title>
<path fill="none" stroke="black" d="M909.45,-36.45C982.78,-58.18 1107.89,-95.25 1185.91,-118.36"/>
<polygon fill="black" stroke="black" points="1195.43,-121.18 1184.56,-122.66 1191.8,-120.11 1185.84,-118.34 1185.84,-118.34 1185.84,-118.34 1191.8,-120.11 1187.12,-114.03 1195.43,-121.18"/>
</g>
<!-- de_funk.pipelines.base.progress_tracker -->
<g id="node8" class="node">
<title>de_funk.pipelines.base.progress_tracker</title>
<polygon fill="none" stroke="black" points="2829.06,-158 2546.06,-158 2546.06,-122 2829.06,-122 2829.06,-158"/>
<text text-anchor="middle" x="2687.56" y="-135.9" font-family="Times,serif" font-size="13.00">de_funk.pipelines.base.progress_tracker</text>
</g>
<!-- de_funk.pipelines.base&#45;&gt;de_funk.pipelines.base.progress_tracker -->
<g id="edge6" class="edge">
<title>de_funk.pipelines.base&#45;&gt;de_funk.pipelines.base.progress_tracker</title>
<path fill="none" stroke="black" d="M934.37,-23.37C1177.07,-36.22 1901.31,-75.86 2501.56,-122 2512.29,-122.82 2523.36,-123.72 2534.51,-124.66"/>
<polygon fill="black" stroke="black" points="2544.46,-125.5 2534.11,-129.14 2540.69,-125.18 2534.5,-124.66 2534.5,-124.66 2534.5,-124.66 2540.69,-125.18 2534.88,-120.17 2544.46,-125.5"/>
</g>
<!-- de_funk.pipelines.base.provider -->
<g id="node9" class="node">
<title>de_funk.pipelines.base.provider</title>
<polygon fill="none" stroke="black" points="1214.93,-524 988.18,-524 988.18,-488 1214.93,-488 1214.93,-524"/>
<text text-anchor="middle" x="1101.56" y="-501.9" font-family="Times,serif" font-size="13.00">de_funk.pipelines.base.provider</text>
</g>
<!-- de_funk.pipelines.base&#45;&gt;de_funk.pipelines.base.provider -->
<g id="edge7" class="edge">
<title>de_funk.pipelines.base&#45;&gt;de_funk.pipelines.base.provider</title>
<path fill="none" stroke="black" d="M766.79,-23.03C563.4,-33.66 56.49,-65.6 6.56,-122 -4.05,-133.98 0.42,-143.22 6.56,-158 65.51,-299.92 113.31,-334.88 251.56,-402 376.55,-462.68 772.23,-489.66 976.63,-499.8"/>
<polygon fill="black" stroke="black" points="986.5,-500.29 976.29,-504.29 982.72,-500.1 976.51,-499.8 976.51,-499.8 976.51,-499.8 982.72,-500.1 976.73,-495.3 986.5,-500.29"/>
</g>
<!-- de_funk.pipelines.base.socrata_provider -->
<g id="node12" class="node">
<title>de_funk.pipelines.base.socrata_provider</title>
<polygon fill="none" stroke="black" points="1839.31,-402 1557.81,-402 1557.81,-366 1839.31,-366 1839.31,-402"/>
<text text-anchor="middle" x="1698.56" y="-379.9" font-family="Times,serif" font-size="13.00">de_funk.pipelines.base.socrata_provider</text>
</g>
<!-- de_funk.pipelines.base&#45;&gt;de_funk.pipelines.base.socrata_provider -->
<g id="edge8" class="edge">
<title>de_funk.pipelines.base&#45;&gt;de_funk.pipelines.base.socrata_provider</title>
<path fill="none" stroke="black" d="M934.26,-18.47C1239.5,-17.35 2280.54,-21.02 2385.56,-122 2436.35,-170.84 2444.61,-226.67 2398.56,-280 2329.22,-360.29 2034.8,-379.12 1850.58,-382.88"/>
<polygon fill="black" stroke="black" points="1840.65,-383.07 1850.56,-378.38 1844.43,-383 1850.65,-382.88 1850.65,-382.88 1850.65,-382.88 1844.43,-383 1850.73,-387.38 1840.65,-383.07"/>
</g>
<!-- de_funk.pipelines.base.ingestor_engine&#45;&gt;de_funk.pipelines.base.provider -->
<g id="edge9" class="edge">
<title>de_funk.pipelines.base.ingestor_engine&#45;&gt;de_funk.pipelines.base.provider</title>
<path fill="none" stroke="black" d="M1540.63,-158.31C1465.63,-217.53 1219.15,-412.15 1132.23,-480.78"/>
<polygon fill="black" stroke="black" points="1124.57,-486.83 1129.63,-477.1 1127.54,-484.48 1132.42,-480.63 1132.42,-480.63 1132.42,-480.63 1127.54,-484.48 1135.21,-484.16 1124.57,-486.83"/>
</g>
<!-- de_funk.pipelines.ingestors.bronze_sink -->
<g id="node14" class="node">
<title>de_funk.pipelines.ingestors.bronze_sink</title>
<polygon fill="none" stroke="black" points="813.93,-280 533.18,-280 533.18,-244 813.93,-244 813.93,-280"/>
<text text-anchor="middle" x="673.56" y="-257.9" font-family="Times,serif" font-size="13.00">de_funk.pipelines.ingestors.bronze_sink</text>
</g>
<!-- de_funk.pipelines.base.ingestor_engine&#45;&gt;de_funk.pipelines.ingestors.bronze_sink -->
<g id="edge10" class="edge">
<title>de_funk.pipelines.base.ingestor_engine&#45;&gt;de_funk.pipelines.ingestors.bronze_sink</title>
<path fill="none" stroke="black" d="M1433.29,-158.45C1268.36,-180.71 984.15,-219.08 814.02,-242.04"/>
<polygon fill="black" stroke="black" points="804.19,-243.37 813.5,-237.57 807.94,-242.86 814.1,-242.03 814.1,-242.03 814.1,-242.03 807.94,-242.86 814.7,-246.49 804.19,-243.37"/>
</g>
<!-- de_funk.pipelines.providers.alpha_vantage.alpha_vantage_provider -->
<g id="node16" class="node">
<title>de_funk.pipelines.providers.alpha_vantage.alpha_vantage_provider</title>
<polygon fill="none" stroke="black" points="1331.18,-280 871.93,-280 871.93,-244 1331.18,-244 1331.18,-280"/>
<text text-anchor="middle" x="1101.56" y="-257.9" font-family="Times,serif" font-size="13.00">de_funk.pipelines.providers.alpha_vantage.alpha_vantage_provider</text>
</g>
<!-- de_funk.pipelines.base.ingestor_engine&#45;&gt;de_funk.pipelines.providers.alpha_vantage.alpha_vantage_provider -->
<g id="edge11" class="edge">
<title>de_funk.pipelines.base.ingestor_engine&#45;&gt;de_funk.pipelines.providers.alpha_vantage.alpha_vantage_provider</title>
<path fill="none" stroke="black" d="M1495.53,-158.45C1411.62,-180.29 1268.18,-217.63 1179.48,-240.72"/>
<polygon fill="black" stroke="black" points="1169.85,-243.22 1178.4,-236.35 1173.51,-242.27 1179.53,-240.7 1179.53,-240.7 1179.53,-240.7 1173.51,-242.27 1180.66,-245.06 1169.85,-243.22"/>
</g>
<!-- de_funk.pipelines.providers.chicago.chicago_provider -->
<g id="node19" class="node">
<title>de_funk.pipelines.providers.chicago.chicago_provider</title>
<polygon fill="none" stroke="black" points="1879.68,-280 1507.43,-280 1507.43,-244 1879.68,-244 1879.68,-280"/>
<text text-anchor="middle" x="1693.56" y="-257.9" font-family="Times,serif" font-size="13.00">de_funk.pipelines.providers.chicago.chicago_provider</text>
</g>
<!-- de_funk.pipelines.base.ingestor_engine&#45;&gt;de_funk.pipelines.providers.chicago.chicago_provider -->
<g id="edge12" class="edge">
<title>de_funk.pipelines.base.ingestor_engine&#45;&gt;de_funk.pipelines.providers.chicago.chicago_provider</title>
<path fill="none" stroke="black" d="M1581.61,-158.45C1603.92,-178.89 1641.05,-212.9 1666.39,-236.11"/>
<polygon fill="black" stroke="black" points="1673.59,-242.71 1663.17,-239.27 1670.8,-240.15 1666.21,-235.95 1666.21,-235.95 1666.21,-235.95 1670.8,-240.15 1669.25,-232.63 1673.59,-242.71"/>
</g>
<!-- de_funk.pipelines.providers.cook_county.cook_county_provider -->
<g id="node21" class="node">
<title>de_funk.pipelines.providers.cook_county.cook_county_provider</title>
<polygon fill="none" stroke="black" points="2369.31,-280 1937.81,-280 1937.81,-244 2369.31,-244 2369.31,-280"/>
<text text-anchor="middle" x="2153.56" y="-257.9" font-family="Times,serif" font-size="13.00">de_funk.pipelines.providers.cook_county.cook_county_provider</text>
</g>
<!-- de_funk.pipelines.base.ingestor_engine&#45;&gt;de_funk.pipelines.providers.cook_county.cook_county_provider -->
<g id="edge13" class="edge">
<title>de_funk.pipelines.base.ingestor_engine&#45;&gt;de_funk.pipelines.providers.cook_county.cook_county_provider</title>
<path fill="none" stroke="black" d="M1648.49,-158.45C1757.04,-180.49 1943.32,-218.31 2056.77,-241.35"/>
<polygon fill="black" stroke="black" points="2066.32,-243.29 2055.63,-245.71 2062.62,-242.53 2056.52,-241.3 2056.52,-241.3 2056.52,-241.3 2062.62,-242.53 2057.42,-236.89 2066.32,-243.29"/>
</g>
<!-- de_funk.pipelines.base.normalizer -->
<g id="node7" class="node">
<title>de_funk.pipelines.base.normalizer</title>
<polygon fill="none" stroke="black" points="1514.43,-524 1272.68,-524 1272.68,-488 1514.43,-488 1514.43,-524"/>
<text text-anchor="middle" x="1393.56" y="-501.9" font-family="Times,serif" font-size="13.00">de_funk.pipelines.base.normalizer</text>
</g>
<!-- de_funk.pipelines.base.registry -->
<g id="node10" class="node">
<title>de_funk.pipelines.base.registry</title>
<polygon fill="none" stroke="black" points="3110.06,-158 2887.06,-158 2887.06,-122 3110.06,-122 3110.06,-158"/>
<text text-anchor="middle" x="2998.56" y="-135.9" font-family="Times,serif" font-size="13.00">de_funk.pipelines.base.registry</text>
</g>
<!-- de_funk.pipelines.base.socrata_client -->
<g id="node11" class="node">
<title>de_funk.pipelines.base.socrata_client</title>
<polygon fill="none" stroke="black" points="1836.31,-524 1572.81,-524 1572.81,-488 1836.31,-488 1836.31,-524"/>
<text text-anchor="middle" x="1704.56" y="-501.9" font-family="Times,serif" font-size="13.00">de_funk.pipelines.base.socrata_client</text>
</g>
<!-- de_funk.pipelines.base.socrata_provider&#45;&gt;de_funk.pipelines.base.normalizer -->
<g id="edge14" class="edge">
<title>de_funk.pipelines.base.socrata_provider&#45;&gt;de_funk.pipelines.base.normalizer</title>
<path fill="none" stroke="black" d="M1654.21,-402.45C1599.66,-423.91 1507.07,-460.34 1448.19,-483.51"/>
<polygon fill="black" stroke="black" points="1439.1,-487.08 1446.75,-479.23 1442.61,-485.7 1448.4,-483.42 1448.4,-483.42 1448.4,-483.42 1442.61,-485.7 1450.05,-487.61 1439.1,-487.08"/>
</g>
<!-- de_funk.pipelines.base.socrata_provider&#45;&gt;de_funk.pipelines.base.provider -->
<g id="edge15" class="edge">
<title>de_funk.pipelines.base.socrata_provider&#45;&gt;de_funk.pipelines.base.provider</title>
<path fill="none" stroke="black" d="M1611.75,-402.45C1502.1,-424.49 1313.93,-462.31 1199.33,-485.35"/>
<polygon fill="black" stroke="black" points="1189.67,-487.29 1198.58,-480.91 1193.37,-486.54 1199.47,-485.32 1199.47,-485.32 1199.47,-485.32 1193.37,-486.54 1200.36,-489.73 1189.67,-487.29"/>
</g>
<!-- de_funk.pipelines.base.socrata_provider&#45;&gt;de_funk.pipelines.base.socrata_client -->
<g id="edge16" class="edge">
<title>de_funk.pipelines.base.socrata_provider&#45;&gt;de_funk.pipelines.base.socrata_client</title>
<path fill="none" stroke="black" d="M1699.43,-402.45C1700.4,-421.82 1701.98,-453.39 1703.13,-476.39"/>
<polygon fill="black" stroke="black" points="1703.62,-486.31 1698.63,-476.55 1703.44,-482.54 1703.12,-476.33 1703.12,-476.33 1703.12,-476.33 1703.44,-482.54 1707.62,-476.1 1703.62,-486.31"/>
</g>
<!-- de_funk.pipelines.ingestors -->
<g id="node13" class="node">
<title>de_funk.pipelines.ingestors</title>
<polygon fill="none" stroke="black" points="731.31,-158 533.81,-158 533.81,-122 731.31,-122 731.31,-158"/>
<text text-anchor="middle" x="632.56" y="-135.9" font-family="Times,serif" font-size="13.00">de_funk.pipelines.ingestors</text>
</g>
<!-- de_funk.pipelines.ingestors&#45;&gt;de_funk.pipelines.ingestors.bronze_sink -->
<g id="edge17" class="edge">
<title>de_funk.pipelines.ingestors&#45;&gt;de_funk.pipelines.ingestors.bronze_sink</title>
<path fill="none" stroke="black" d="M638.52,-158.45C645.2,-178 656.12,-209.97 664,-233.02"/>
<polygon fill="black" stroke="black" points="667.2,-242.38 659.7,-234.37 665.97,-238.8 663.96,-232.91 663.96,-232.91 663.96,-232.91 665.97,-238.8 668.22,-231.46 667.2,-242.38"/>
</g>
<!-- de_funk.pipelines.providers.alpha_vantage -->
<g id="node15" class="node">
<title>de_funk.pipelines.providers.alpha_vantage</title>
<polygon fill="none" stroke="black" points="1087.56,-158 789.56,-158 789.56,-122 1087.56,-122 1087.56,-158"/>
<text text-anchor="middle" x="938.56" y="-135.9" font-family="Times,serif" font-size="13.00">de_funk.pipelines.providers.alpha_vantage</text>
</g>
<!-- de_funk.pipelines.providers.alpha_vantage&#45;&gt;de_funk.pipelines.providers.alpha_vantage.alpha_vantage_provider -->
<g id="edge18" class="edge">
<title>de_funk.pipelines.providers.alpha_vantage&#45;&gt;de_funk.pipelines.providers.alpha_vantage.alpha_vantage_provider</title>
<path fill="none" stroke="black" d="M962.26,-158.45C990.39,-179.16 1037.44,-213.79 1068.98,-237.01"/>
<polygon fill="black" stroke="black" points="1076.85,-242.81 1066.13,-240.5 1073.8,-240.57 1068.79,-236.88 1068.79,-236.88 1068.79,-236.88 1073.8,-240.57 1071.46,-233.26 1076.85,-242.81"/>
</g>
<!-- de_funk.pipelines.providers.alpha_vantage.alpha_vantage_provider&#45;&gt;de_funk.pipelines.base.http_client -->
<g id="edge19" class="edge">
<title>de_funk.pipelines.providers.alpha_vantage.alpha_vantage_provider&#45;&gt;de_funk.pipelines.base.http_client</title>
<path fill="none" stroke="black" d="M1061.28,-280.45C1012.05,-301.78 928.69,-337.89 875.17,-361.07"/>
<polygon fill="black" stroke="black" points="866,-365.05 873.39,-356.94 869.47,-363.54 875.18,-361.07 875.18,-361.07 875.18,-361.07 869.47,-363.54 876.97,-365.2 866,-365.05"/>
</g>
<!-- de_funk.pipelines.providers.alpha_vantage.alpha_vantage_provider&#45;&gt;de_funk.pipelines.base.key_pool -->
<g id="edge20" class="edge">
<title>de_funk.pipelines.providers.alpha_vantage.alpha_vantage_provider&#45;&gt;de_funk.pipelines.base.key_pool</title>
<path fill="none" stroke="black" d="M998.9,-280.45C868.58,-302.6 644.46,-340.69 509.14,-363.69"/>
<polygon fill="black" stroke="black" points="499.54,-365.33 508.65,-359.21 503.27,-364.69 509.4,-363.65 509.4,-363.65 509.4,-363.65 503.27,-364.69 510.15,-368.09 499.54,-365.33"/>
</g>
<!-- de_funk.pipelines.providers.alpha_vantage.alpha_vantage_provider&#45;&gt;de_funk.pipelines.base.normalizer -->
<g id="edge21" class="edge">
<title>de_funk.pipelines.providers.alpha_vantage.alpha_vantage_provider&#45;&gt;de_funk.pipelines.base.normalizer</title>
<path fill="none" stroke="black" d="M1122.56,-280.4C1173.8,-322.87 1305.36,-431.91 1364.27,-480.73"/>
<polygon fill="black" stroke="black" points="1371.81,-486.98 1361.24,-484.06 1368.9,-484.56 1364.11,-480.6 1364.11,-480.6 1364.11,-480.6 1368.9,-484.56 1366.98,-477.13 1371.81,-486.98"/>
</g>
<!-- de_funk.pipelines.providers.alpha_vantage.alpha_vantage_provider&#45;&gt;de_funk.pipelines.base.provider -->
<g id="edge22" class="edge">
<title>de_funk.pipelines.providers.alpha_vantage.alpha_vantage_provider&#45;&gt;de_funk.pipelines.base.provider</title>
<path fill="none" stroke="black" d="M1101.56,-280.4C1101.56,-321.74 1101.56,-426.13 1101.56,-476.69"/>
<polygon fill="black" stroke="black" points="1101.56,-486.54 1097.06,-476.54 1101.56,-482.75 1101.56,-476.54 1101.56,-476.54 1101.56,-476.54 1101.56,-482.75 1106.06,-476.54 1101.56,-486.54"/>
</g>
<!-- de_funk.pipelines.providers.alpha_vantage.alpha_vantage_registry -->
<g id="node17" class="node">
<title>de_funk.pipelines.providers.alpha_vantage.alpha_vantage_registry</title>
<polygon fill="none" stroke="black" points="3226.31,-36 2770.81,-36 2770.81,0 3226.31,0 3226.31,-36"/>
<text text-anchor="middle" x="2998.56" y="-13.9" font-family="Times,serif" font-size="13.00">de_funk.pipelines.providers.alpha_vantage.alpha_vantage_registry</text>
</g>
<!-- de_funk.pipelines.providers.alpha_vantage.alpha_vantage_registry&#45;&gt;de_funk.pipelines.base.registry -->
<g id="edge23" class="edge">
<title>de_funk.pipelines.providers.alpha_vantage.alpha_vantage_registry&#45;&gt;de_funk.pipelines.base.registry</title>
<path fill="none" stroke="black" d="M2998.56,-36.45C2998.56,-55.82 2998.56,-87.39 2998.56,-110.39"/>
<polygon fill="black" stroke="black" points="2998.56,-120.31 2994.06,-110.31 2998.56,-116.53 2998.56,-110.31 2998.56,-110.31 2998.56,-110.31 2998.56,-116.53 3003.06,-110.31 2998.56,-120.31"/>
</g>
<!-- de_funk.pipelines.providers.chicago -->
<g id="node18" class="node">
<title>de_funk.pipelines.providers.chicago</title>
<polygon fill="none" stroke="black" points="2012.81,-158 1758.31,-158 1758.31,-122 2012.81,-122 2012.81,-158"/>
<text text-anchor="middle" x="1885.56" y="-135.9" font-family="Times,serif" font-size="13.00">de_funk.pipelines.providers.chicago</text>
</g>
<!-- de_funk.pipelines.providers.chicago&#45;&gt;de_funk.pipelines.providers.chicago.chicago_provider -->
<g id="edge24" class="edge">
<title>de_funk.pipelines.providers.chicago&#45;&gt;de_funk.pipelines.providers.chicago.chicago_provider</title>
<path fill="none" stroke="black" d="M1857.64,-158.45C1824.22,-179.33 1768.13,-214.39 1730.99,-237.61"/>
<polygon fill="black" stroke="black" points="1722.54,-242.88 1728.64,-233.77 1725.75,-240.88 1731.02,-237.58 1731.02,-237.58 1731.02,-237.58 1725.75,-240.88 1733.41,-241.4 1722.54,-242.88"/>
</g>
<!-- de_funk.pipelines.providers.chicago.chicago_provider&#45;&gt;de_funk.pipelines.base.socrata_provider -->
<g id="edge25" class="edge">
<title>de_funk.pipelines.providers.chicago.chicago_provider&#45;&gt;de_funk.pipelines.base.socrata_provider</title>
<path fill="none" stroke="black" d="M1694.29,-280.45C1695.09,-299.82 1696.41,-331.39 1697.37,-354.39"/>
<polygon fill="black" stroke="black" points="1697.78,-364.31 1692.87,-354.51 1697.62,-360.53 1697.36,-354.32 1697.36,-354.32 1697.36,-354.32 1697.62,-360.53 1701.86,-354.13 1697.78,-364.31"/>
</g>
<!-- de_funk.pipelines.providers.cook_county -->
<g id="node20" class="node">
<title>de_funk.pipelines.providers.cook_county</title>
<polygon fill="none" stroke="black" points="2356.18,-158 2070.93,-158 2070.93,-122 2356.18,-122 2356.18,-158"/>
<text text-anchor="middle" x="2213.56" y="-135.9" font-family="Times,serif" font-size="13.00">de_funk.pipelines.providers.cook_county</text>
</g>
<!-- de_funk.pipelines.providers.cook_county&#45;&gt;de_funk.pipelines.providers.cook_county.cook_county_provider -->
<g id="edge26" class="edge">
<title>de_funk.pipelines.providers.cook_county&#45;&gt;de_funk.pipelines.providers.cook_county.cook_county_provider</title>
<path fill="none" stroke="black" d="M2204.83,-158.45C2194.97,-178.18 2178.78,-210.55 2167.23,-233.65"/>
<polygon fill="black" stroke="black" points="2162.84,-242.44 2163.29,-231.48 2164.53,-239.06 2167.31,-233.5 2167.31,-233.5 2167.31,-233.5 2164.53,-239.06 2171.34,-235.51 2162.84,-242.44"/>
</g>
<!-- de_funk.pipelines.providers.cook_county.cook_county_provider&#45;&gt;de_funk.pipelines.base.socrata_provider -->
<g id="edge27" class="edge">
<title>de_funk.pipelines.providers.cook_county.cook_county_provider&#45;&gt;de_funk.pipelines.base.socrata_provider</title>
<path fill="none" stroke="black" d="M2087.4,-280.45C2004.59,-302.29 1863.02,-339.63 1775.46,-362.72"/>
<polygon fill="black" stroke="black" points="1765.98,-365.22 1774.5,-358.32 1769.63,-364.25 1775.65,-362.67 1775.65,-362.67 1775.65,-362.67 1769.63,-364.25 1776.79,-367.02 1765.98,-365.22"/>
</g>
</g>
</svg>
